<svg class="animated" id="freepik_stories-basketball-ball" xmlns="http://www.w3.org/2000/svg" viewBox="0 0 500 500" version="1.1" xmlns:xlink="http://www.w3.org/1999/xlink" xmlns:svgjs="http://svgjs.com/svgjs"><style>svg#freepik_stories-basketball-ball:not(.animated) .animable {opacity: 0;}svg#freepik_stories-basketball-ball.animated #freepik--Crowd--inject-78 {animation: 6s Infinite  linear wind;animation-delay: 0s;}svg#freepik_stories-basketball-ball.animated #freepik--Hand_2--inject-78 {animation: 6s Infinite  linear floating;animation-delay: 0s;}svg#freepik_stories-basketball-ball.animated #freepik--Hand_1--inject-78 {animation: 6s Infinite  linear floating;animation-delay: 0s;}svg#freepik_stories-basketball-ball.animated #freepik--Ball--inject-78 {animation: 3s Infinite  linear spin;animation-delay: 0s;}            @keyframes wind {                0% {                    transform: rotate( 0deg );                }                25% {                    transform: rotate( 1deg );                }                75% {                    transform: rotate( -1deg );                }            }                    @keyframes floating {                0% {                    opacity: 1;                    transform: translateY(0px);                }                50% {                    transform: translateY(-10px);                }                100% {                    opacity: 1;                    transform: translateY(0px);                }            }                 @keyframes spin {             from {                 transform: rotate(0);               }               to {                 transform: rotate(360deg);               }         }     </style><g id="freepik--background-simple--inject-78" class="animable" style="transform-origin: 250.112px 261.274px;"><g id="elq6q328r2rng" class="animable" style="transform-origin: 250.112px 261.274px;"><path d="M137.7183,457.2042S48.8896,389.5048,27.9336,283.9002C6.97784,178.2958,93.0704,157.0058,143.5661,121.218c50.4957-35.7875,69.0808-76.0581,142.2494-78.5282,73.1689-2.4698,111.0197,24.7291,137.4382,77.4306,26.4185,52.7014,40.5277,106.8192,48.832,159.6353,8.3044,52.8163,4.2232,95.0027-42.7428,116.0454-46.96589,21.0427-68.762,11.8112-91.0714,36.044-22.3094,24.2329-124.1313,79.0831-200.55319,25.3591Z" style="fill: rgb(0, 255, 136); transform-origin: 250.112px 261.274px;" id="elxi7zmurtt7i" class="animable"></path><g id="eljf8897up0s"><path d="M137.7183,457.2042S48.8896,389.5048,27.9336,283.9002C6.97784,178.2958,93.0704,157.0058,143.5661,121.218c50.4957-35.7875,69.0808-76.0581,142.2494-78.5282,73.1689-2.4698,111.0197,24.7291,137.4382,77.4306,26.4185,52.7014,40.5277,106.8192,48.832,159.6353,8.3044,52.8163,4.2232,95.0027-42.7428,116.0454-46.96589,21.0427-68.762,11.8112-91.0714,36.044-22.3094,24.2329-124.1313,79.0831-200.55319,25.3591Z" style="fill: rgb(255, 255, 255); opacity: 0.7; transform-origin: 250.112px 261.274px;" class="animable"></path></g></g></g><g id="freepik--Crowd--inject-78" class="animable" style="transform-origin: 252.676px 423.145px;"><g id="el0o41irbjzd8r"><g style="opacity: 0.29; transform-origin: 252.676px 423.145px;" class="animable"><g id="el14u1slrz6m4" class="animable" style="transform-origin: 252.676px 389.642px;"><path d="M256.70609,373.6954c0,3.7577-3.0462,6.8039-6.8039,6.8039s-6.804-3.0462-6.804-6.8039,3.0463-6.804,6.804-6.804,6.8039,3.0463,6.8039,6.804Z" style="fill: rgb(163, 163, 163); stroke: rgb(0, 0, 0); stroke-linecap: round; stroke-linejoin: round; transform-origin: 249.902px 373.695px;" id="eliev8n6c5s1q" class="animable"></path><path d="M303.24809,416.966c0,3.7577-3.0462,6.8039-6.8039,6.8039s-6.8039-3.0462-6.8039-6.8039,3.0462-6.804,6.8039-6.804,6.8039,3.0463,6.8039,6.804Z" style="fill: rgb(163, 163, 163); stroke: rgb(0, 0, 0); stroke-linecap: round; stroke-linejoin: round; transform-origin: 296.444px 416.966px;" id="elg5mtzgq71iv" class="animable"></path><path d="M211.93189,360.9654c0,1.3334-1.081,2.4144-2.4143,2.4144-1.3334,0-2.4144-1.081-2.4144-2.4144,0-1.3333,1.081-2.4143,2.4144-2.4143,1.3333,0,2.4143,1.081,2.4143,2.4143Z" style="fill: none; stroke: rgb(0, 0, 0); stroke-linecap: round; stroke-linejoin: round; transform-origin: 209.518px 360.965px;" id="elg6t2t4gy7wp" class="animable"></path><circle cx="215.88249" cy="373.4759" r="3.5117" style="fill: none; stroke: rgb(0, 0, 0); stroke-linecap: round; stroke-linejoin: round; transform-origin: 215.882px 373.476px;" id="elkkuf89nhpqk" class="animable"></circle><path d="M260.16479,384.6088c0,1.3334-1.081,2.4143-2.4143,2.4143-1.3334,0-2.4144-1.0809-2.4144-2.4143,0-1.3333,1.081-2.4142,2.4144-2.4142,1.3333,0,2.4143,1.0809,2.4143,2.4142Z" style="fill: none; stroke: rgb(0, 0, 0); stroke-linecap: round; stroke-linejoin: round; transform-origin: 257.75px 384.609px;" id="el9id5z0yu9bw" class="animable"></path><path d="M267.62719,397.1193c0,1.9394-1.5723,3.5117-3.5118,3.5117s-3.5117-1.5723-3.5117-3.5117,1.5722-3.5117,3.5117-3.5117,3.5118,1.5723,3.5118,3.5117Z" style="stroke: rgb(0, 0, 0); stroke-miterlimit: 10; transform-origin: 264.115px 397.119px;" id="eln7s7kvn8xp" class="animable"></path><circle cx="268.86069" cy="379.0011" r="3.5117" style="fill: none; stroke: rgb(0, 0, 0); stroke-linecap: round; stroke-linejoin: round; transform-origin: 268.861px 379.001px;" id="elqsi7wxo153k" class="animable"></circle><circle cx="452.34349" cy="396.5761" r="3.5117" style="fill: none; stroke: rgb(0, 0, 0); stroke-linecap: round; stroke-linejoin: round; transform-origin: 452.343px 396.576px;" id="elwbe7ysaoxsi" class="animable"></circle><path d="M233.85029,376.8439c0,1.3334-1.081,2.4143-2.41429,2.4143-1.33341,0-2.41441-1.0809-2.41441-2.4143s1.081-2.4143,2.41441-2.4143c1.33329,0,2.41429,1.0809,2.41429,2.4143Z" style="fill: none; stroke: rgb(0, 0, 0); stroke-linecap: round; stroke-linejoin: round; transform-origin: 231.436px 376.844px;" id="el8a644b22xxk" class="animable"></path><path d="M241.31259,389.3544c0,1.9394-1.5722,3.5116-3.5117,3.5116s-3.5117-1.5722-3.5117-3.5116c0-1.9395,1.5722-3.5118,3.5117-3.5118s3.5117,1.5723,3.5117,3.5118Z" style="fill: none; stroke: rgb(0, 0, 0); stroke-linecap: round; stroke-linejoin: round; transform-origin: 237.801px 389.354px;" id="el49ys7h9gsnl" class="animable"></path><path d="M218.23949,404.6035c0,1.9395-1.5722,3.5118-3.5117,3.5118s-3.5117-1.5723-3.5117-3.5118c0-1.9394,1.5722-3.5116,3.5117-3.5116s3.5117,1.5722,3.5117,3.5116Z" style="fill: rgb(163, 163, 163); stroke: rgb(0, 0, 0); stroke-linecap: round; stroke-linejoin: round; transform-origin: 214.728px 404.604px;" id="elscx2w39s4n" class="animable"></path><path d="M293.51029,372.4697c0,1.9394-1.57229,3.5117-3.5117,3.5117s-3.5118-1.5723-3.5118-3.5117,1.5723-3.5117,3.5118-3.5117,3.5117,1.5723,3.5117,3.5117Z" style="fill: none; stroke: rgb(0, 0, 0); stroke-linecap: round; stroke-linejoin: round; transform-origin: 289.999px 372.47px;" id="el4ysgc0x8dto" class="animable"></path><path d="M254.07229,398.2773c0,3.0304-2.4566,5.487-5.487,5.487s-5.4871-2.4566-5.4871-5.487,2.4567-5.487,5.4871-5.487,5.487,2.4566,5.487,5.487Z" style="fill: rgb(212, 212, 212); stroke: rgb(0, 0, 0); stroke-linecap: round; stroke-linejoin: round; transform-origin: 248.585px 398.277px;" id="el6vsvsfusprl" class="animable"></path><path d="M227.97539,388.24c0,3.0304-2.4566,5.4871-5.487,5.4871s-5.4871-2.4567-5.4871-5.4871,2.45671-5.487,5.4871-5.487,5.487,2.4566,5.487,5.487Z" style="stroke: rgb(0, 0, 0); stroke-miterlimit: 10; transform-origin: 222.488px 388.24px;" id="elzk3pjswncb" class="animable"></path><path d="M207.33449,402.0679c0,3.7577-3.0462,6.804-6.8039,6.804s-6.8039-3.0463-6.8039-6.804,3.0462-6.8039,6.8039-6.8039,6.8039,3.0462,6.8039,6.8039Z" style="fill: none; stroke: rgb(0, 0, 0); stroke-linecap: round; stroke-linejoin: round; transform-origin: 200.531px 402.068px;" id="el38zsl2ara03" class="animable"></path><circle cx="182.454" cy="400.9334" r="2.4143" style="fill: none; stroke: rgb(0, 0, 0); stroke-linecap: round; stroke-linejoin: round; transform-origin: 182.454px 400.933px;" id="el66yfgh8ju9l" class="animable"></circle><path d="M192.3307,413.4438c0,1.9395-1.5723,3.5118-3.5117,3.5118-1.9395,0-3.5118-1.5723-3.5118-3.5118,0-1.9394,1.5723-3.5117,3.5118-3.5117,1.9394,0,3.5117,1.5723,3.5117,3.5117Z" style="stroke: rgb(0, 0, 0); stroke-miterlimit: 10; transform-origin: 188.819px 413.444px;" id="elvdli551y6p" class="animable"></path><path d="M221.78819,419.332c0,3.0305-2.4566,5.4871-5.487,5.4871s-5.487-2.4566-5.487-5.4871,2.4566-5.487,5.487-5.487,5.487,2.4566,5.487,5.487Z" style="fill: none; stroke: rgb(0, 0, 0); stroke-linecap: round; stroke-linejoin: round; transform-origin: 216.301px 419.332px;" id="elc4eu8tpgmvd" class="animable"></path><circle cx="240.46449" cy="419.567" r="2.1948" style="fill: none; stroke: rgb(0, 0, 0); stroke-linecap: round; stroke-linejoin: round; transform-origin: 240.464px 419.567px;" id="elfw4sp3ml11" class="animable"></circle><path d="M289.17369,394.4325c0,1.2121-.98269,2.1948-2.1948,2.1948-1.2122,0-2.1948-.9827-2.1948-2.1948,0-1.2122,.9826-2.1949,2.1948-2.1949,1.21211,0,2.1948,.9827,2.1948,2.1949Z" style="fill: none; stroke: rgb(0, 0, 0); stroke-linecap: round; stroke-linejoin: round; transform-origin: 286.979px 394.432px;" id="elkn3td096dp" class="animable"></path><circle cx="188.1916" cy="354.3515" r="2.1948" style="fill: none; stroke: rgb(0, 0, 0); stroke-linecap: round; stroke-linejoin: round; transform-origin: 188.192px 354.351px;" id="el4z9dzbh8zrh" class="animable"></circle><path d="M188.2278,385.7669c0,1.4545-1.1791,2.6338-2.6337,2.6338s-2.6338-1.1793-2.6338-2.6338c0-1.4546,1.1792-2.6338,2.6338-2.6338s2.6337,1.1792,2.6337,2.6338Z" style="fill: none; stroke: rgb(0, 0, 0); stroke-linecap: round; stroke-linejoin: round; transform-origin: 185.594px 385.767px;" id="elrurlv6r5os" class="animable"></path><path d="M201.39679,382.4747c0,.8485-.6879,1.5363-1.5364,1.5363s-1.53639-.6878-1.53639-1.5363c0-.8486,.68789-1.5364,1.53639-1.5364s1.5364,.6878,1.5364,1.5364Z" style="fill: none; stroke: rgb(0, 0, 0); stroke-linecap: round; stroke-linejoin: round; transform-origin: 199.86px 382.475px;" id="elco0n4geh4d8" class="animable"></path><path d="M198.54479,371.6069c0,2.788-2.2601,5.0481-5.0481,5.0481s-5.048-2.2601-5.048-5.0481,2.2601-5.048,5.048-5.048,5.0481,2.2601,5.0481,5.048Z" style="stroke: rgb(0, 0, 0); stroke-miterlimit: 10; transform-origin: 193.497px 371.607px;" id="elajke6vnerhr" class="animable"></path><path d="M230.36829,362.9408c0,2.4243-1.96529,4.3896-4.3896,4.3896s-4.38969-1.9653-4.38969-4.3896,1.96539-4.3897,4.38969-4.3897,4.3896,1.9654,4.3896,4.3897Z" style="stroke: rgb(0, 0, 0); stroke-miterlimit: 10; transform-origin: 225.979px 362.941px;" id="ellvzexdfr1ts" class="animable"></path><circle cx="346.76739" cy="373.4759" r="3.5117" style="fill: none; stroke: rgb(0, 0, 0); stroke-linecap: round; stroke-linejoin: round; transform-origin: 346.767px 373.476px;" id="elqwoy92t1opo" class="animable"></circle><path d="M286.98439,385.1924c0,1.9394-1.5722,3.5117-3.5117,3.5117s-3.51169-1.5723-3.51169-3.5117c0-1.9395,1.57219-3.5118,3.51169-3.5118s3.5117,1.5723,3.5117,3.5118Z" style="fill: none; stroke: rgb(0, 0, 0); stroke-linecap: round; stroke-linejoin: round; transform-origin: 283.473px 385.192px;" id="elff07xbh1cqt" class="animable"></path><circle cx="362.32079" cy="376.8439" r="2.4143" style="fill: none; stroke: rgb(0, 0, 0); stroke-linecap: round; stroke-linejoin: round; transform-origin: 362.321px 376.844px;" id="elh5pr2b0mnup" class="animable"></circle><path d="M313.55839,384.3792c0,1.3334-1.081,2.4144-2.4143,2.4144-1.3334,0-2.4144-1.081-2.4144-2.4144,0-1.3333,1.081-2.4143,2.4144-2.4143,1.3333,0,2.4143,1.081,2.4143,2.4143Z" style="fill: none; stroke: rgb(0, 0, 0); stroke-linecap: round; stroke-linejoin: round; transform-origin: 311.144px 384.379px;" id="elcwthwdmdjt5" class="animable"></path><path d="M333.04829,366.4904c0,1.3335-1.0809,2.4144-2.41429,2.4144s-2.41431-1.0809-2.41431-2.4144c0-1.3333,1.0809-2.4142,2.41431-2.4142s2.41429,1.0809,2.41429,2.4142Z" style="fill: none; stroke: rgb(0, 0, 0); stroke-linecap: round; stroke-linejoin: round; transform-origin: 330.634px 366.49px;" id="elswqot95r09j" class="animable"></path><path d="M482.68839,400.6417c0,1.3334-1.081,2.4144-2.4143,2.4144-1.3334,0-2.4143-1.081-2.4143-2.4144,0-1.3333,1.0809-2.4143,2.4143-2.4143,1.3333,0,2.4143,1.081,2.4143,2.4143Z" style="fill: none; stroke: rgb(0, 0, 0); stroke-linecap: round; stroke-linejoin: round; transform-origin: 480.274px 400.642px;" id="ely756povx0g" class="animable"></path><path d="M287.53839,361.6117c0,1.3334-1.081,2.4144-2.4143,2.4144-1.3334,0-2.4144-1.081-2.4144-2.4144,0-1.3333,1.081-2.4143,2.4144-2.4143,1.3333,0,2.4143,1.081,2.4143,2.4143Z" style="fill: none; stroke: rgb(0, 0, 0); stroke-linecap: round; stroke-linejoin: round; transform-origin: 285.124px 361.612px;" id="elfj31w5n237n" class="animable"></path><path d="M372.19749,389.3544c0,1.9394-1.5723,3.5116-3.5117,3.5116-1.9395,0-3.5117-1.5722-3.5117-3.5116,0-1.9395,1.5722-3.5118,3.5117-3.5118,1.9394,0,3.5117,1.5723,3.5117,3.5118Z" style="stroke: rgb(0, 0, 0); stroke-miterlimit: 10; transform-origin: 368.686px 389.354px;" id="elvmsw497vol" class="animable"></path><circle cx="305.16789" cy="371.3692" r="3.5117" style="fill: rgb(163, 163, 163); stroke: rgb(0, 0, 0); stroke-linecap: round; stroke-linejoin: round; transform-origin: 305.168px 371.369px;" id="el0jfqbl9r7v9" class="animable"></circle><path d="M349.12439,404.6035c0,1.9395-1.5723,3.5118-3.5117,3.5118-1.9395,0-3.51169-1.5723-3.51169-3.5118,0-1.9394,1.57219-3.5116,3.51169-3.5116,1.9394,0,3.5117,1.5722,3.5117,3.5116Z" style="fill: none; stroke: rgb(0, 0, 0); stroke-linecap: round; stroke-linejoin: round; transform-origin: 345.613px 404.604px;" id="elgqswulwkjnc" class="animable"></path><path d="M172.3338,401.4548c0,1.9395-1.5723,3.5118-3.5117,3.5118-1.9395,0-3.5117-1.5723-3.5117-3.5118,0-1.9394,1.5722-3.5117,3.5117-3.5117,1.9394,0,3.5117,1.5723,3.5117,3.5117Z" style="fill: none; stroke: rgb(0, 0, 0); stroke-linecap: round; stroke-linejoin: round; transform-origin: 168.822px 401.455px;" id="ellvsk4kdu2p" class="animable"></path><path d="M358.86019,388.24c0,3.0304-2.4566,5.4871-5.487,5.4871s-5.487-2.4567-5.487-5.4871,2.4566-5.487,5.487-5.487,5.487,2.4566,5.487,5.487Z" style="fill: none; stroke: rgb(0, 0, 0); stroke-linecap: round; stroke-linejoin: round; transform-origin: 353.373px 388.24px;" id="elwu9ordab1d8" class="animable"></path><path d="M328.19459,415.278c0,3.0304-2.45659,5.487-5.487,5.487s-5.4871-2.4566-5.4871-5.487,2.4567-5.4871,5.4871-5.4871,5.487,2.4567,5.487,5.4871Z" style="fill: none; stroke: rgb(0, 0, 0); stroke-linecap: round; stroke-linejoin: round; transform-origin: 322.708px 415.278px;" id="elvwl0mpk0ozb" class="animable"></path><path d="M338.21939,402.0679c0,3.7577-3.0462,6.804-6.8039,6.804s-6.804-3.0463-6.804-6.804,3.0462-6.8039,6.804-6.8039,6.8039,3.0462,6.8039,6.8039Z" style="fill: rgb(163, 163, 163); stroke: rgb(0, 0, 0); stroke-linecap: round; stroke-linejoin: round; transform-origin: 331.415px 402.068px;" id="ellato0dk412e" class="animable"></path><path d="M361.25319,362.9408c0,2.4243-1.9653,4.3896-4.3896,4.3896s-4.3897-1.9653-4.3897-4.3896,1.9653-4.3897,4.3897-4.3897,4.3896,1.9654,4.3896,4.3897Z" style="fill: none; stroke: rgb(0, 0, 0); stroke-linecap: round; stroke-linejoin: round; transform-origin: 356.864px 362.941px;" id="elt4vzxpm5l7" class="animable"></path><g id="elkfncvj54eor"><circle cx="420.94614" cy="380.74125" r="3.51171" style="stroke: rgb(0, 0, 0); stroke-miterlimit: 10; transform-origin: 420.946px 380.741px; transform: rotate(-73.1192deg);" class="animable"></circle></g><path d="M459.57,380.5423c-1.92261,.2553-3.68811-1.0964-3.94341-3.019s1.0963-3.688,3.0189-3.9433,3.6881,1.0962,3.9434,3.0188-1.0963,3.6882-3.01889,3.9435Z" style="fill: none; stroke: rgb(0, 0, 0); stroke-linecap: round; stroke-linejoin: round; transform-origin: 459.108px 377.061px;" id="elmakevvx67xj" class="animable"></path><path d="M476.64559,375.6635c-1.92259,.2553-3.6881-1.0963-3.9434-3.0189s1.0963-3.6881,3.0189-3.9434,3.6881,1.0963,3.9434,3.0189c.2553,1.9225-1.0963,3.6881-3.0189,3.9434Z" style="fill: none; stroke: rgb(0, 0, 0); stroke-linecap: round; stroke-linejoin: round; transform-origin: 476.183px 372.182px;" id="el6oq2wd5gf28" class="animable"></path><path d="M419.97269,398.996c-1.3218,.1755-2.53569-.7537-2.7112-2.0755-.17549-1.3218,.7538-2.5356,2.0756-2.7111,1.3217-.1755,2.5355,.7537,2.711,2.0755,.1756,1.3218-.7537,2.5356-2.0754,2.7111Z" style="fill: none; stroke: rgb(0, 0, 0); stroke-linecap: round; stroke-linejoin: round; transform-origin: 419.655px 396.603px;" id="el495flo6947f" class="animable"></path><path d="M417.95619,418.4844c-1.3218,.1755-2.5356-.7537-2.7111-2.0755-.1756-1.3218,.7537-2.5356,2.0755-2.7111,1.3217-.1755,2.5356,.7537,2.7111,2.0755s-.7538,2.5356-2.0755,2.7111Z" style="fill: none; stroke: rgb(0, 0, 0); stroke-linecap: round; stroke-linejoin: round; transform-origin: 417.638px 416.091px;" id="elofkh0gierl9" class="animable"></path><path d="M435.845,414.4188c-1.32191,.1755-2.53571-.7537-2.71121-2.0755s.7537-2.5356,2.0755-2.7111,2.5356,.7537,2.7111,2.0755-.7537,2.5356-2.07539,2.7111Z" style="fill: rgb(212, 212, 212); stroke: rgb(0, 0, 0); stroke-linecap: round; stroke-linejoin: round; transform-origin: 435.527px 412.025px;" id="eldzhabb7vsg" class="animable"></path><path d="M476.18339,412.0255c-1.3218,.1755-2.5356-.7537-2.7112-2.0755-.1755-1.3218,.75381-2.5356,2.0756-2.7111,1.3217-.1755,2.5355,.7537,2.711,2.0755,.1756,1.3218-.7537,2.5356-2.0754,2.7111Z" style="stroke: rgb(0, 0, 0); stroke-miterlimit: 10; transform-origin: 475.865px 409.632px;" id="elflp76eovqht" class="animable"></path><path d="M390.62769,402.1758c-1.3218,.1756-2.5356-.7537-2.7111-2.0754-.1755-1.3218,.7537-2.5356,2.0755-2.7112,1.3218-.1755,2.5356,.7538,2.7111,2.0756,.1755,1.3217-.7537,2.5355-2.0755,2.711Z" style="fill: none; stroke: rgb(0, 0, 0); stroke-linecap: round; stroke-linejoin: round; transform-origin: 390.31px 399.783px;" id="elrn8lixnasgc" class="animable"></path><path d="M408.55339,408.0402c-1.9226,.2553-3.6881-1.0963-3.94339-3.0189-.25531-1.9226,1.09619-3.6881,3.01879-3.9434s3.68821,1.0963,3.9435,3.0189c.2553,1.9226-1.0964,3.6881-3.0189,3.9434Z" style="stroke: rgb(0, 0, 0); stroke-miterlimit: 10; transform-origin: 408.091px 404.559px;" id="eluorq5tlzh7" class="animable"></path><path d="M390.39969,387.1752c-1.9226,.2553-3.6882-1.0963-3.9435-3.0189s1.0963-3.6881,3.0189-3.9434,3.6881,1.0963,3.9434,3.0189-1.0963,3.6881-3.0188,3.9434Z" style="fill: none; stroke: rgb(0, 0, 0); stroke-linecap: round; stroke-linejoin: round; transform-origin: 389.937px 383.694px;" id="elq9bdx9bt9uk" class="animable"></path><path d="M358.28019,420.1567c-1.9225,.2553-3.6881-1.0963-3.9434-3.0189s1.0963-3.6881,3.0189-3.9434,3.6881,1.0963,3.9434,3.0189-1.0963,3.6881-3.0189,3.9434Z" style="stroke: rgb(0, 0, 0); stroke-miterlimit: 10; transform-origin: 357.818px 416.676px;" id="eltjvzgee9un" class="animable"></path><path d="M365.47619,406.9131c-1.9226,.2553-3.68819-1.0963-3.9435-3.0189-.2553-1.9226,1.0964-3.6881,3.019-3.9434s3.688,1.0963,3.94331,3.0189c.25529,1.9226-1.09621,3.6881-3.01881,3.9434Z" style="fill: none; stroke: rgb(0, 0, 0); stroke-linecap: round; stroke-linejoin: round; transform-origin: 365.014px 403.432px;" id="elyf4dkxgwzne" class="animable"></path><g id="elgq8p6cgdvv"><circle cx="397.31024" cy="415.27795" r="3.51171" style="fill: rgb(212, 212, 212); stroke: rgb(0, 0, 0); stroke-linecap: round; stroke-linejoin: round; transform-origin: 397.31px 415.278px; transform: rotate(-43.7201deg);" class="animable"></circle></g><path d="M407.90229,394.6723c-3.004,.3989-5.7626-1.7129-6.1616-4.7169-.3989-3.0041,1.713-5.7627,4.7171-6.1616,3.004-.3989,5.7627,1.713,6.1616,4.717s-1.713,5.7626-4.7171,6.1615Z" style="fill: none; stroke: rgb(0, 0, 0); stroke-linecap: round; stroke-linejoin: round; transform-origin: 407.18px 389.233px;" id="eltucggw865w" class="animable"></path><path d="M381.04769,412.8386c-3.004,.3989-5.7626-1.7129-6.1615-4.717-.399-3.004,1.7129-5.7627,4.717-6.1616,3.004-.3989,5.7627,1.713,6.1616,4.7171,.3989,3.004-1.713,5.7626-4.7171,6.1615Z" style="fill: none; stroke: rgb(0, 0, 0); stroke-linecap: round; stroke-linejoin: round; transform-origin: 380.325px 407.399px;" id="el78zalgdo6fu" class="animable"></path><path d="M391.47769,376.0313c-3.725,.4946-7.14569-2.124-7.6403-5.849-.4947-3.7251,2.1241-7.1458,5.8491-7.6404s7.1457,2.124,7.6404,5.8491c.4946,3.725-2.1242,7.1457-5.8492,7.6403Z" style="fill: rgb(163, 163, 163); stroke: rgb(0, 0, 0); stroke-linecap: round; stroke-linejoin: round; transform-origin: 390.582px 369.287px;" id="elpagi3x3yzyq" class="animable"></path><path d="M443.50109,374.9439c-3.725,.4947-7.1457-2.124-7.6403-5.849-.4947-3.7251,2.1241-7.1458,5.8491-7.6404s7.1457,2.124,7.6403,5.8491c.4947,3.725-2.1241,7.1457-5.8491,7.6403Z" style="fill: none; stroke: rgb(0, 0, 0); stroke-linecap: round; stroke-linejoin: round; transform-origin: 442.605px 368.199px;" id="elytc4j4ywo6" class="animable"></path><path d="M336.32589,390.0711c-3.725,.4946-7.1458-2.124-7.6404-5.849-.4946-3.7251,2.1241-7.1458,5.8491-7.6404,3.725-.4947,7.1457,2.124,7.64041,5.8491,.49459,3.725-2.12411,7.1457-5.84911,7.6403Z" style="stroke: rgb(0, 0, 0); stroke-miterlimit: 10; transform-origin: 335.43px 383.326px;" id="elfl22jovzu28" class="animable"></path><path d="M458.95049,419.6658c-3.725,.4946-7.1457-2.1241-7.6403-5.8491-.4947-3.725,2.1241-7.1457,5.8491-7.6403,3.725-.4947,7.14571,2.124,7.6403,5.8491,.4947,3.725-2.1241,7.1456-5.8491,7.6403Z" style="fill: none; stroke: rgb(0, 0, 0); stroke-linecap: round; stroke-linejoin: round; transform-origin: 458.055px 412.921px;" id="el3z80nn1lefd" class="animable"></path><path d="M433.29639,393.7142c-2.4032,.3191-4.6101-1.3704-4.9292-3.7736s1.3704-4.6101,3.7736-4.9293c2.40321-.3191,4.6101,1.3704,4.9293,3.7737,.3191,2.4032-1.3704,4.6101-3.7737,4.9292Z" style="fill: rgb(212, 212, 212); stroke: rgb(0, 0, 0); stroke-linecap: round; stroke-linejoin: round; transform-origin: 432.719px 389.363px;" id="ely2cqp35jyhl" class="animable"></path><path d="M467.239,393.3236c-2.40321,.3191-4.61011-1.3704-4.92921-3.7736-.3192-2.4032,1.3704-4.6101,3.7735-4.9293,2.4033-.3191,4.6102,1.3704,4.9293,3.7737,.3192,2.4032-1.3704,4.6101-3.77359,4.9292Z" style="stroke: rgb(0, 0, 0); stroke-miterlimit: 10; transform-origin: 466.661px 388.972px;" id="elk8l52miuei" class="animable"></path><path d="M415.54149,374.3802c-2.4032,.3191-4.6101-1.3704-4.9292-3.7736s1.3704-4.6101,3.7736-4.9292c2.4032-.3192,4.61011,1.3703,4.9293,3.7736,.3191,2.4032-1.3704,4.6101-3.7737,4.9292Z" style="stroke: rgb(0, 0, 0); stroke-miterlimit: 10; transform-origin: 414.964px 370.029px;" id="elzaqbda4dhj" class="animable"></path><path d="M322.55319,375.9559c-2.40319,.3192-4.6101-1.3704-4.92919-3.7735-.31911-2.4033,1.37039-4.6102,3.77359-4.9293,2.4032-.3192,4.6101,1.3703,4.9293,3.7736,.31911,2.4032-1.3704,4.6101-3.7737,4.9292Z" style="fill: none; stroke: rgb(0, 0, 0); stroke-linecap: round; stroke-linejoin: round; transform-origin: 321.975px 371.605px;" id="elzakoy2czlz" class="animable"></path><circle cx="302.08649" cy="398.856" r="3.5117" style="fill: none; stroke: rgb(0, 0, 0); stroke-linecap: round; stroke-linejoin: round; transform-origin: 302.086px 398.856px;" id="ellc2p18fe00g" class="animable"></circle><path d="M268.55019,425.591c0,.8485-.6879,1.5364-1.5364,1.5364s-1.5363-.6879-1.5363-1.5364,.6878-1.5364,1.5363-1.5364,1.5364,.6879,1.5364,1.5364Z" style="stroke: rgb(0, 0, 0); stroke-miterlimit: 10; transform-origin: 267.014px 425.591px;" id="el0vhi3w8ztc" class="animable"></path><circle cx="260.65019" cy="414.7233" r="5.0481" style="fill: rgb(163, 163, 163); stroke: rgb(0, 0, 0); stroke-linecap: round; stroke-linejoin: round; transform-origin: 260.65px 414.723px;" id="elad6tvcpzl2" class="animable"></circle><path d="M290.84479,406.8858c0,2.4243-1.9654,4.3896-4.3897,4.3896s-4.3896-1.9653-4.3896-4.3896,1.9653-4.3896,4.3896-4.3896,4.3897,1.9653,4.3897,4.3896Z" style="fill: none; stroke: rgb(0, 0, 0); stroke-linecap: round; stroke-linejoin: round; transform-origin: 286.455px 406.886px;" id="elotumd6gyu2" class="animable"></path><path d="M269.29209,361.2536c0,2.4244-1.9653,4.3897-4.3897,4.3897s-4.3896-1.9653-4.3896-4.3897c0-2.4242,1.9653-4.3896,4.3896-4.3896s4.3897,1.9654,4.3897,4.3896Z" style="fill: none; stroke: rgb(0, 0, 0); stroke-linecap: round; stroke-linejoin: round; transform-origin: 264.902px 361.254px;" id="el04ghpmcbkwjv" class="animable"></path><circle cx="145.8335" cy="404.9305" r="6.8039" style="fill: rgb(163, 163, 163); stroke: rgb(0, 0, 0); stroke-linecap: round; stroke-linejoin: round; transform-origin: 145.833px 404.93px;" id="eltjviz2l1wm" class="animable"></circle><path d="M107.8632,417.6604c0-1.3334-1.081-2.4142-2.4143-2.4142-1.3334,0-2.4143,1.0808-2.4143,2.4142s1.0809,2.4143,2.4143,2.4143c1.3333,0,2.4143-1.0809,2.4143-2.4143Z" style="fill: none; stroke: rgb(0, 0, 0); stroke-linecap: round; stroke-linejoin: round; transform-origin: 105.449px 417.66px;" id="elau057deog5" class="animable"></path><circle cx="74.5247" cy="416.0911" r="2.4143" style="fill: none; stroke: rgb(0, 0, 0); stroke-linecap: round; stroke-linejoin: round; transform-origin: 74.5247px 416.091px;" id="elalk83szvzq" class="animable"></circle><path d="M115.3256,405.15c0-1.9395-1.5723-3.5117-3.5117-3.5117-1.9395,0-3.5118,1.5722-3.5118,3.5117,0,1.9394,1.5723,3.5117,3.5118,3.5117,1.9394,0,3.5117-1.5723,3.5117-3.5117Z" style="fill: none; stroke: rgb(0, 0, 0); stroke-linecap: round; stroke-linejoin: round; transform-origin: 111.814px 405.15px;" id="el672mpe1g1sf" class="animable"></path><path d="M156.0961,394.017c0-1.3333-1.081-2.4142-2.4143-2.4142-1.3334,0-2.4143,1.0809-2.4143,2.4142,0,1.3334,1.0809,2.4143,2.4143,2.4143,1.3333,0,2.4143-1.0809,2.4143-2.4143Z" style="fill: none; stroke: rgb(0, 0, 0); stroke-linecap: round; stroke-linejoin: round; transform-origin: 153.682px 394.017px;" id="el8ek5j68odpf" class="animable"></path><circle cx="78.5652" cy="386.7935" r="2.4143" style="fill: rgb(163, 163, 163); stroke: rgb(0, 0, 0); stroke-linecap: round; stroke-linejoin: round; transform-origin: 78.5652px 386.793px;" id="el9n78ku0g72m" class="animable"></circle><circle cx="68.0197" cy="371.3692" r="2.4143" style="fill: rgb(163, 163, 163); stroke: rgb(0, 0, 0); stroke-linecap: round; stroke-linejoin: round; transform-origin: 68.0197px 371.369px;" id="el49k3jb1h7l2" class="animable"></circle><path d="M163.5585,381.5066c0-1.9395-1.5723-3.5117-3.5117-3.5117-1.9395,0-3.5118,1.5722-3.5118,3.5117s1.5723,3.5117,3.5118,3.5117c1.9394,0,3.5117-1.5722,3.5117-3.5117Z" style="stroke: rgb(0, 0, 0); stroke-miterlimit: 10; transform-origin: 160.047px 381.507px;" id="el70ulhc7aqo7" class="animable"></path><circle cx="98.9554" cy="357.3712" r="3.5117" style="fill: none; stroke: rgb(0, 0, 0); stroke-linecap: round; stroke-linejoin: round; transform-origin: 98.9554px 357.371px;" id="eljq0wlb6yhvh" class="animable"></circle><path d="M129.7816,401.782c0-1.3334-1.081-2.4143-2.4143-2.4143-1.3334,0-2.4144,1.0809-2.4144,2.4143,0,1.3333,1.081,2.4143,2.4144,2.4143,1.3333,0,2.4143-1.081,2.4143-2.4143Z" style="stroke: rgb(0, 0, 0); stroke-miterlimit: 10; transform-origin: 127.367px 401.782px;" id="ele6rkrr7rthb" class="animable"></path><path d="M33.8433,364.0511c0-1.3334-1.0809-2.4143-2.4142-2.4143-1.3334,0-2.4144,1.0809-2.4144,2.4143s1.081,2.4143,2.4144,2.4143c1.3333,0,2.4142-1.0809,2.4142-2.4143Z" style="fill: none; stroke: rgb(0, 0, 0); stroke-linecap: round; stroke-linejoin: round; transform-origin: 31.429px 364.051px;" id="elj66i4rl8hyb" class="animable"></path><path d="M137.2439,389.2716c0-1.9395-1.5722-3.5118-3.5117-3.5118-1.9394,0-3.5117,1.5723-3.5117,3.5118,0,1.9394,1.5723,3.5116,3.5117,3.5116,1.9395,0,3.5117-1.5722,3.5117-3.5116Z" style="fill: rgb(212, 212, 212); stroke: rgb(0, 0, 0); stroke-linecap: round; stroke-linejoin: round; transform-origin: 133.732px 389.271px;" id="eltentbnmlf4c" class="animable"></path><path d="M150.0036,380.3486c0-3.0304-2.4566-5.4871-5.487-5.4871s-5.487,2.4567-5.487,5.4871,2.4566,5.487,5.487,5.487,5.487-2.4566,5.487-5.487Z" style="fill: none; stroke: rgb(0, 0, 0); stroke-linecap: round; stroke-linejoin: round; transform-origin: 144.517px 380.349px;" id="el3sthuegd4n3" class="animable"></path><path d="M33.6385,401.4549c0-3.0304-2.4566-5.4871-5.487-5.4871s-5.4871,2.4567-5.4871,5.4871,2.4566,5.487,5.4871,5.487,5.487-2.4566,5.487-5.487Z" style="fill: none; stroke: rgb(0, 0, 0); stroke-linecap: round; stroke-linejoin: round; transform-origin: 28.1515px 401.455px;" id="elvas5gr0glrg" class="animable"></path><circle cx="136.3958" cy="359.0588" r="2.1948" style="fill: none; stroke: rgb(0, 0, 0); stroke-linecap: round; stroke-linejoin: round; transform-origin: 136.396px 359.059px;" id="elb4tmswms7th" class="animable"></circle><path d="M179.1482,368.1167c0-1.2121-.9827-2.1948-2.1949-2.1948-1.2121,0-2.1948,.9827-2.1948,2.1948,0,1.2122,.9827,2.1948,2.1948,2.1948,1.2122,0,2.1949-.9826,2.1949-2.1948Z" style="fill: none; stroke: rgb(0, 0, 0); stroke-linecap: round; stroke-linejoin: round; transform-origin: 176.953px 368.117px;" id="elq5cg0u3jd" class="animable"></path><circle cx="127.3662" cy="374.6266" r="2.1948" style="fill: rgb(163, 163, 163); stroke: rgb(0, 0, 0); stroke-linecap: round; stroke-linejoin: round; transform-origin: 127.366px 374.627px;" id="el55ai0dg0k8a" class="animable"></circle><path d="M80.7601,361.3672c0-1.2122-.9827-2.1948-2.1949-2.1948s-2.1948,.9826-2.1948,2.1948c0,1.2121,.9826,2.1948,2.1948,2.1948s2.1949-.9827,2.1949-2.1948Z" style="stroke: rgb(0, 0, 0); stroke-miterlimit: 10; transform-origin: 78.5653px 361.367px;" id="elvz6mm7m8yyi" class="animable"></path><path d="M97.3281,396.1512c0-.8485-.6879-1.5363-1.5364-1.5363s-1.5364,.6878-1.5364,1.5363,.6879,1.5364,1.5364,1.5364,1.5364-.6879,1.5364-1.5364Z" style="fill: none; stroke: rgb(0, 0, 0); stroke-linecap: round; stroke-linejoin: round; transform-origin: 95.7917px 396.151px;" id="el6z1bxurw7fe" class="animable"></path><path d="M71.2471,403.8942c0-.8484-.6878-1.5363-1.5364-1.5363-.8485,0-1.5363,.6879-1.5363,1.5363,0,.8486,.6878,1.5364,1.5363,1.5364,.8486,0,1.5364-.6878,1.5364-1.5364Z" style="fill: none; stroke: rgb(0, 0, 0); stroke-linecap: round; stroke-linejoin: round; transform-origin: 69.7108px 403.894px;" id="elnjycyyc6ma" class="animable"></path><path d="M55.8093,400.0784c0-.8486-.6879-1.5364-1.5364-1.5364s-1.5364,.6878-1.5364,1.5364c0,.8485,.6879,1.5363,1.5364,1.5363s1.5364-.6878,1.5364-1.5363Z" style="fill: none; stroke: rgb(0, 0, 0); stroke-linecap: round; stroke-linejoin: round; transform-origin: 54.2729px 400.078px;" id="elhx2coxttlxf" class="animable"></path><path d="M94.4761,407.019c0-2.788-2.2601-5.0481-5.048-5.0481s-5.0481,2.2601-5.0481,5.0481,2.2601,5.048,5.0481,5.048,5.048-2.26,5.048-5.048Z" style="stroke: rgb(0, 0, 0); stroke-miterlimit: 10; transform-origin: 89.428px 407.019px;" id="elw1mlc4s4ewh" class="animable"></path><path d="M58.6711,421.2547c0-2.788-2.2601-5.0481-5.0481-5.0481s-5.048,2.2601-5.048,5.0481,2.2601,5.048,5.048,5.048,5.0481-2.2601,5.0481-5.048Z" style="stroke: rgb(0, 0, 0); stroke-miterlimit: 10; transform-origin: 53.6231px 421.255px;" id="elabmtlf4230n" class="animable"></path><circle cx="121.91" cy="415.6851" r="4.3896" style="fill: none; stroke: rgb(0, 0, 0); stroke-linecap: round; stroke-linejoin: round; transform-origin: 121.91px 415.685px;" id="elsbnjj9lgu8a" class="animable"></circle><circle cx="96.8201" cy="374.4832" r="3.5117" style="fill: rgb(163, 163, 163); stroke: rgb(0, 0, 0); stroke-linecap: round; stroke-linejoin: round; transform-origin: 96.8201px 374.483px;" id="elrowvvc9y9ne" class="animable"></circle><path d="M114.7878,371.1152c0-1.3334-1.0809-2.4143-2.4142-2.4143-1.3335,0-2.4144,1.0809-2.4144,2.4143s1.0809,2.4143,2.4144,2.4143c1.3333,0,2.4142-1.0809,2.4142-2.4143Z" style="fill: none; stroke: rgb(0, 0, 0); stroke-linecap: round; stroke-linejoin: round; transform-origin: 112.374px 371.115px;" id="elrlwwux0r0qr" class="animable"></path><path d="M50.6629,408.7061c0-1.3334-1.0809-2.4143-2.4143-2.4143-1.3333,0-2.4142,1.0809-2.4142,2.4143s1.0809,2.4143,2.4142,2.4143c1.3334,0,2.4143-1.0809,2.4143-2.4143Z" style="fill: none; stroke: rgb(0, 0, 0); stroke-linecap: round; stroke-linejoin: round; transform-origin: 48.2486px 408.706px;" id="el1nvirh2bc4x" class="animable"></path><circle cx="118.7385" cy="358.6047" r="3.5117" style="stroke: rgb(0, 0, 0); stroke-miterlimit: 10; transform-origin: 118.739px 358.605px;" id="elvv9vmzwojxc" class="animable"></circle><path d="M111.3059,385.0183c0-2.4243-1.9653-4.3896-4.3896-4.3896s-4.3897,1.9653-4.3897,4.3896,1.9653,4.3896,4.3897,4.3896,4.3896-1.9653,4.3896-4.3896Z" style="fill: rgb(212, 212, 212); stroke: rgb(0, 0, 0); stroke-linecap: round; stroke-linejoin: round; transform-origin: 106.916px 385.018px;" id="elwjvidhcc97" class="animable"></path><circle cx="156.5815" cy="363.9026" r="5.0481" style="fill: rgb(163, 163, 163); stroke: rgb(0, 0, 0); stroke-linecap: round; stroke-linejoin: round; transform-origin: 156.582px 363.903px;" id="el2katc4h4u0h" class="animable"></circle><path d="M57.4376,385.8204c0-1.9394-1.5722-3.5116-3.5117-3.5116s-3.5117,1.5722-3.5117,3.5116c0,1.9395,1.5722,3.5118,3.5117,3.5118s3.5117-1.5723,3.5117-3.5118Z" style="fill: none; stroke: rgb(0, 0, 0); stroke-linecap: round; stroke-linejoin: round; transform-origin: 53.9259px 385.821px;" id="elcqn3ch8x7gf" class="animable"></path><path d="M43.8828,384.6624c0-3.0304-2.4566-5.487-5.487-5.487s-5.4871,2.4566-5.4871,5.487,2.4567,5.4871,5.4871,5.4871,5.487-2.4567,5.487-5.4871Z" style="stroke: rgb(0, 0, 0); stroke-miterlimit: 10; transform-origin: 38.3958px 384.662px;" id="el3v3x7dp9ldf" class="animable"></path><path d="M55.5088,368.2164c0-2.7879-2.2602-5.048-5.0482-5.048s-5.048,2.2601-5.048,5.048,2.2601,5.0481,5.048,5.0481,5.0482-2.2601,5.0482-5.0481Z" style="fill: none; stroke: rgb(0, 0, 0); stroke-linecap: round; stroke-linejoin: round; transform-origin: 50.4607px 368.216px;" id="el7netgxlk9ph" class="animable"></path><path d="M165.2234,417.3722c0-2.4243-1.9653-4.3896-4.3896-4.3896s-4.3897,1.9653-4.3897,4.3896,1.9653,4.3896,4.3897,4.3896,4.3896-1.9652,4.3896-4.3896Z" style="fill: none; stroke: rgb(0, 0, 0); stroke-linecap: round; stroke-linejoin: round; transform-origin: 160.834px 417.372px;" id="eltrg15sr7tzq" class="animable"></path></g><g id="el9i9p190vs8" class="animable" style="transform-origin: 248.655px 456.649px;"><path d="M246.30389,440.702c0,3.7577,3.0462,6.8039,6.8039,6.8039s6.804-3.0462,6.804-6.8039-3.0463-6.804-6.804-6.804-6.8039,3.0463-6.8039,6.804Z" style="fill: rgb(163, 163, 163); stroke: rgb(0, 0, 0); stroke-linecap: round; stroke-linejoin: round; transform-origin: 253.108px 440.702px;" id="elp9v504687vi" class="animable"></path><path d="M199.76189,483.9726c0,3.7577,3.0462,6.8039,6.8039,6.8039s6.8039-3.0462,6.8039-6.8039-3.0462-6.804-6.8039-6.804-6.8039,3.0463-6.8039,6.804Z" style="fill: rgb(212, 212, 212); stroke: rgb(0, 0, 0); stroke-linecap: round; stroke-linejoin: round; transform-origin: 206.566px 483.973px;" id="elz4b1vpqgyv" class="animable"></path><path d="M291.078,427.972c0,1.3334,1.081,2.4144,2.41429,2.4144,1.3334,0,2.4144-1.081,2.4144-2.4144,0-1.3333-1.081-2.4143-2.4144-2.4143-1.33329,0-2.41429,1.081-2.41429,2.4143Z" style="fill: none; stroke: rgb(0, 0, 0); stroke-linecap: round; stroke-linejoin: round; transform-origin: 293.492px 427.972px;" id="elp2p1w1pvh2j" class="animable"></path><path d="M283.61579,440.4825c0,1.9395,1.5721,3.5117,3.5117,3.5117,1.9394,0,3.5116-1.5722,3.5116-3.5117s-1.5722-3.5117-3.5116-3.5117c-1.9396,0-3.5117,1.5722-3.5117,3.5117Z" style="fill: none; stroke: rgb(0, 0, 0); stroke-linecap: round; stroke-linejoin: round; transform-origin: 287.127px 440.483px;" id="elprtaepxo49" class="animable"></path><path d="M242.84519,451.6154c0,1.3334,1.081,2.4143,2.4143,2.4143,1.3334,0,2.4144-1.0809,2.4144-2.4143,0-1.3333-1.081-2.4142-2.4144-2.4142-1.3333,0-2.4143,1.0809-2.4143,2.4142Z" style="fill: none; stroke: rgb(0, 0, 0); stroke-linecap: round; stroke-linejoin: round; transform-origin: 245.26px 451.615px;" id="eljlmcc4pys5s" class="animable"></path><path d="M235.38279,464.1259c0,1.9394,1.5723,3.5117,3.5118,3.5117s3.5117-1.5723,3.5117-3.5117-1.5722-3.5117-3.5117-3.5117-3.5118,1.5723-3.5118,3.5117Z" style="fill: rgb(163, 163, 163); stroke: rgb(0, 0, 0); stroke-linecap: round; stroke-linejoin: round; transform-origin: 238.895px 464.126px;" id="elu6p9n9jax7f" class="animable"></path><path d="M230.63759,446.0077c0,1.9395,1.5723,3.5117,3.5117,3.5117,1.9395,0,3.5116-1.5722,3.5116-3.5117s-1.5721-3.5117-3.5116-3.5117c-1.9394,0-3.5117,1.5722-3.5117,3.5117Z" style="fill: none; stroke: rgb(0, 0, 0); stroke-linecap: round; stroke-linejoin: round; transform-origin: 234.149px 446.008px;" id="eln1o9ctyduxm" class="animable"></path><circle cx="50.6665" cy="463.5827" r="3.5117" style="fill: none; stroke: rgb(0, 0, 0); stroke-linecap: round; stroke-linejoin: round; transform-origin: 50.6665px 463.583px;" id="el2hacsjwagrt" class="animable"></circle><path d="M269.15969,443.8505c0,1.3334,1.081,2.4143,2.4142,2.4143,1.3335,0,2.4145-1.0809,2.4145-2.4143s-1.081-2.4143-2.4145-2.4143c-1.3332,0-2.4142,1.0809-2.4142,2.4143Z" style="fill: none; stroke: rgb(0, 0, 0); stroke-linecap: round; stroke-linejoin: round; transform-origin: 271.574px 443.85px;" id="el7makuh6q4yr" class="animable"></path><path d="M261.69739,456.361c0,1.9394,1.5722,3.5116,3.5117,3.5116s3.5117-1.5722,3.5117-3.5116c0-1.9395-1.5722-3.5118-3.5117-3.5118s-3.5117,1.5723-3.5117,3.5118Z" style="fill: none; stroke: rgb(0, 0, 0); stroke-linecap: round; stroke-linejoin: round; transform-origin: 265.209px 456.361px;" id="elopprtuxmc1p" class="animable"></path><path d="M284.77049,471.6101c0,1.9395,1.5722,3.5118,3.5117,3.5118,1.9394,0,3.5116-1.5723,3.5116-3.5118,0-1.9394-1.5722-3.5116-3.5116-3.5116-1.9395,0-3.5117,1.5722-3.5117,3.5116Z" style="fill: none; stroke: rgb(0, 0, 0); stroke-linecap: round; stroke-linejoin: round; transform-origin: 288.282px 471.61px;" id="eljrmw8gh1mzm" class="animable"></path><path d="M209.49969,439.4763c0,1.9394,1.5722,3.5117,3.5117,3.5117s3.5118-1.5723,3.5118-3.5117-1.5723-3.5117-3.5118-3.5117-3.5117,1.5723-3.5117,3.5117Z" style="fill: none; stroke: rgb(0, 0, 0); stroke-linecap: round; stroke-linejoin: round; transform-origin: 213.011px 439.476px;" id="el9ml8p8tnesc" class="animable"></path><path d="M248.93769,465.2839c0,3.0304,2.4566,5.487,5.487,5.487s5.4871-2.4566,5.4871-5.487-2.4567-5.487-5.4871-5.487-5.487,2.4566-5.487,5.487Z" style="fill: none; stroke: rgb(0, 0, 0); stroke-linecap: round; stroke-linejoin: round; transform-origin: 254.425px 465.284px;" id="el9v865nd1zw9" class="animable"></path><path d="M275.03459,455.2466c0,3.0304,2.4566,5.4871,5.487,5.4871s5.4871-2.4567,5.4871-5.4871-2.4568-5.487-5.4871-5.487-5.487,2.4566-5.487,5.487Z" style="fill: none; stroke: rgb(0, 0, 0); stroke-linecap: round; stroke-linejoin: round; transform-origin: 280.522px 455.247px;" id="ela6fivpp4njl" class="animable"></path><path d="M295.67539,469.0745c0,3.7577,3.0462,6.804,6.8039,6.804s6.8039-3.0463,6.8039-6.804-3.04619-6.8039-6.8039-6.8039-6.8039,3.0462-6.8039,6.8039Z" style="stroke: rgb(0, 0, 0); stroke-miterlimit: 10; transform-origin: 302.479px 469.075px;" id="elzlhcyvzwnkh" class="animable"></path><circle cx="320.55589" cy="467.94" r="2.4143" style="fill: none; stroke: rgb(0, 0, 0); stroke-linecap: round; stroke-linejoin: round; transform-origin: 320.556px 467.94px;" id="elpa1hfrwk8hq" class="animable"></circle><path d="M310.67919,480.4504c0,1.9395,1.5723,3.5118,3.5117,3.5118,1.9395,0,3.5118-1.5723,3.5118-3.5118,0-1.9394-1.5723-3.5117-3.5118-3.5117-1.9394,0-3.5117,1.5723-3.5117,3.5117Z" style="fill: none; stroke: rgb(0, 0, 0); stroke-linecap: round; stroke-linejoin: round; transform-origin: 314.191px 480.45px;" id="elm2ikxihpj2" class="animable"></path><path d="M281.22179,486.3386c0,3.0305,2.4566,5.4871,5.487,5.4871s5.4869-2.4566,5.4869-5.4871-2.4565-5.487-5.4869-5.487-5.487,2.4566-5.487,5.487Z" style="fill: rgb(163, 163, 163); stroke: rgb(0, 0, 0); stroke-linecap: round; stroke-linejoin: round; transform-origin: 286.709px 486.339px;" id="elltz8107s2jl" class="animable"></path><circle cx="262.54549" cy="486.5736" r="2.1948" style="fill: none; stroke: rgb(0, 0, 0); stroke-linecap: round; stroke-linejoin: round; transform-origin: 262.545px 486.574px;" id="ellgzuu1ft0i" class="animable"></circle><path d="M213.83629,461.4391c0,1.2121,.9826,2.1948,2.1948,2.1948s2.1948-.9827,2.1948-2.1948c0-1.2122-.9826-2.1949-2.1948-2.1949s-2.1948,.9827-2.1948,2.1949Z" style="fill: none; stroke: rgb(0, 0, 0); stroke-linecap: round; stroke-linejoin: round; transform-origin: 216.031px 461.439px;" id="elx99m9lhzuwn" class="animable"></path><circle cx="314.81829" cy="421.3581" r="2.1948" style="fill: none; stroke: rgb(0, 0, 0); stroke-linecap: round; stroke-linejoin: round; transform-origin: 314.818px 421.358px;" id="el4pmy13eg4g9" class="animable"></circle><path d="M314.78209,452.7735c0,1.4545,1.1791,2.6338,2.6337,2.6338s2.6338-1.1793,2.6338-2.6338c0-1.4546-1.1792-2.6338-2.6338-2.6338s-2.6337,1.1792-2.6337,2.6338Z" style="fill: rgb(163, 163, 163); stroke: rgb(0, 0, 0); stroke-linecap: round; stroke-linejoin: round; transform-origin: 317.416px 452.773px;" id="el1n7331n3mn" class="animable"></path><path d="M301.61309,449.4813c0,.8485,.68791,1.5363,1.5364,1.5363s1.5364-.6878,1.5364-1.5363c0-.8486-.68789-1.5364-1.5364-1.5364s-1.5364,.6878-1.5364,1.5364Z" style="fill: none; stroke: rgb(0, 0, 0); stroke-linecap: round; stroke-linejoin: round; transform-origin: 303.15px 449.481px;" id="els81o5sgx9l" class="animable"></path><path d="M304.46509,438.6135c0,2.788,2.2601,5.0481,5.0481,5.0481s5.048-2.2601,5.048-5.0481-2.2601-5.048-5.048-5.048-5.0481,2.2601-5.0481,5.048Z" style="stroke: rgb(0, 0, 0); stroke-miterlimit: 10; transform-origin: 309.513px 438.614px;" id="elsljh464c88" class="animable"></path><path d="M272.64169,429.9474c0,2.4243,1.9652,4.3896,4.3896,4.3896s4.3896-1.9653,4.3896-4.3896-1.9653-4.3897-4.3896-4.3897-4.3896,1.9654-4.3896,4.3897Z" style="fill: none; stroke: rgb(0, 0, 0); stroke-linecap: round; stroke-linejoin: round; transform-origin: 277.031px 429.947px;" id="elmiy3pnl039" class="animable"></path><circle cx="156.2426" cy="440.4825" r="3.5117" style="fill: rgb(212, 212, 212); stroke: rgb(0, 0, 0); stroke-linecap: round; stroke-linejoin: round; transform-origin: 156.243px 440.483px;" id="elvvaaj0gpr2" class="animable"></circle><path d="M216.02559,452.199c0,1.9394,1.5722,3.5117,3.5117,3.5117s3.5116-1.5723,3.5116-3.5117c0-1.9395-1.5721-3.5118-3.5116-3.5118s-3.5117,1.5723-3.5117,3.5118Z" style="fill: rgb(163, 163, 163); stroke: rgb(0, 0, 0); stroke-linecap: round; stroke-linejoin: round; transform-origin: 219.537px 452.199px;" id="elgls51a306gn" class="animable"></path><circle cx="140.6892" cy="443.8505" r="2.4143" style="fill: none; stroke: rgb(0, 0, 0); stroke-linecap: round; stroke-linejoin: round; transform-origin: 140.689px 443.851px;" id="el305r021gi6" class="animable"></circle><path d="M189.4516,451.3858c0,1.3334,1.081,2.4144,2.4143,2.4144,1.3334,0,2.4144-1.081,2.4144-2.4144,0-1.3333-1.081-2.4143-2.4144-2.4143-1.3333,0-2.4143,1.081-2.4143,2.4143Z" style="fill: none; stroke: rgb(0, 0, 0); stroke-linecap: round; stroke-linejoin: round; transform-origin: 191.866px 451.386px;" id="el9bjpwlk2yei" class="animable"></path><path d="M169.9617,433.497c0,1.3335,1.0809,2.4144,2.4142,2.4144,1.3335,0,2.4144-1.0809,2.4144-2.4144,0-1.3333-1.0809-2.4142-2.4144-2.4142-1.3333,0-2.4142,1.0809-2.4142,2.4142Z" style="fill: none; stroke: rgb(0, 0, 0); stroke-linecap: round; stroke-linejoin: round; transform-origin: 172.376px 433.497px;" id="elruvxv17med" class="animable"></path><path d="M215.47159,428.6183c0,1.3334,1.081,2.4144,2.4143,2.4144,1.3334,0,2.4144-1.081,2.4144-2.4144,0-1.3333-1.081-2.4143-2.4144-2.4143-1.3333,0-2.4143,1.081-2.4143,2.4143Z" style="fill: rgb(163, 163, 163); stroke: rgb(0, 0, 0); stroke-linecap: round; stroke-linejoin: round; transform-origin: 217.886px 428.618px;" id="el542x79dy234" class="animable"></path><path d="M130.8125,456.361c0,1.9394,1.5723,3.5116,3.5117,3.5116,1.9395,0,3.5117-1.5722,3.5117-3.5116,0-1.9395-1.5722-3.5118-3.5117-3.5118-1.9394,0-3.5117,1.5723-3.5117,3.5118Z" style="fill: rgb(163, 163, 163); stroke: rgb(0, 0, 0); stroke-linecap: round; stroke-linejoin: round; transform-origin: 134.324px 456.361px;" id="el0334hm41oou" class="animable"></path><circle cx="197.8421" cy="438.3758" r="3.5117" style="fill: none; stroke: rgb(0, 0, 0); stroke-linecap: round; stroke-linejoin: round; transform-origin: 197.842px 438.376px;" id="els91vmzklj7s" class="animable"></circle><path d="M153.8856,471.6101c0,1.9395,1.5723,3.5118,3.5117,3.5118,1.9395,0,3.5116-1.5723,3.5116-3.5118,0-1.9394-1.5721-3.5116-3.5116-3.5116-1.9394,0-3.5117,1.5722-3.5117,3.5116Z" style="fill: none; stroke: rgb(0, 0, 0); stroke-linecap: round; stroke-linejoin: round; transform-origin: 157.397px 471.61px;" id="elcgutf2pgkvd" class="animable"></path><path d="M330.67609,468.4614c0,1.9395,1.5723,3.5118,3.5117,3.5118,1.9395,0,3.5117-1.5723,3.5117-3.5118,0-1.9394-1.5722-3.5117-3.5117-3.5117-1.9394,0-3.5117,1.5723-3.5117,3.5117Z" style="fill: none; stroke: rgb(0, 0, 0); stroke-linecap: round; stroke-linejoin: round; transform-origin: 334.188px 468.461px;" id="elnc87mkwx68" class="animable"></path><path d="M144.1498,455.2466c0,3.0304,2.4566,5.4871,5.487,5.4871s5.487-2.4567,5.487-5.4871-2.4566-5.487-5.487-5.487-5.487,2.4566-5.487,5.487Z" style="stroke: rgb(0, 0, 0); stroke-miterlimit: 10; transform-origin: 149.637px 455.247px;" id="elkyv8ajezjw" class="animable"></path><path d="M174.8154,482.2846c0,3.0304,2.4565,5.487,5.487,5.487s5.4871-2.4566,5.4871-5.487-2.4567-5.4871-5.4871-5.4871-5.487,2.4567-5.487,5.4871Z" style="stroke: rgb(0, 0, 0); stroke-miterlimit: 10; transform-origin: 180.302px 482.285px;" id="el15pkm38xfdc" class="animable"></path><path d="M164.7906,469.0745c0,3.7577,3.0462,6.804,6.8039,6.804s6.804-3.0463,6.804-6.804-3.0462-6.8039-6.804-6.8039-6.8039,3.0462-6.8039,6.8039Z" style="fill: none; stroke: rgb(0, 0, 0); stroke-linecap: round; stroke-linejoin: round; transform-origin: 171.595px 469.075px;" id="elg5ovv130cej" class="animable"></path><path d="M141.7568,429.9474c0,2.4243,1.9653,4.3896,4.3896,4.3896s4.3897-1.9653,4.3897-4.3896-1.9653-4.3897-4.3897-4.3897-4.3896,1.9654-4.3896,4.3897Z" style="fill: none; stroke: rgb(0, 0, 0); stroke-linecap: round; stroke-linejoin: round; transform-origin: 146.146px 429.947px;" id="el8rsb1pk7jza" class="animable"></path><path d="M81.6016,451.229c1.9226,.2553,3.6881-1.0963,3.9433-3.0189,.2554-1.9226-1.0962-3.6881-3.0188-3.9434s-3.6882,1.0963-3.9434,3.0189c-.2553,1.9226,1.0962,3.6881,3.0189,3.9434Z" style="stroke: rgb(0, 0, 0); stroke-miterlimit: 10; transform-origin: 82.0638px 447.748px;" id="el8s4frxyd83b" class="animable"></path><path d="M43.4399,447.5489c1.9227,.2553,3.6882-1.0964,3.9435-3.019s-1.0963-3.688-3.0189-3.9433-3.6881,1.0962-3.9434,3.0188,1.0963,3.6882,3.0188,3.9435Z" style="fill: none; stroke: rgb(0, 0, 0); stroke-linecap: round; stroke-linejoin: round; transform-origin: 43.9023px 444.068px;" id="elmawcjkd7hvr" class="animable"></path><path d="M26.3644,442.6701c1.9225,.2553,3.6881-1.0963,3.9434-3.0189s-1.0963-3.6881-3.0189-3.9434-3.6881,1.0963-3.9434,3.0189c-.2553,1.9225,1.0963,3.6881,3.0189,3.9434Z" style="fill: rgb(163, 163, 163); stroke: rgb(0, 0, 0); stroke-linecap: round; stroke-linejoin: round; transform-origin: 26.8267px 439.189px;" id="el3k78xv2vgvv" class="animable"></path><path d="M83.0373,466.0026c1.3218,.1755,2.5356-.7537,2.7112-2.0755,.1754-1.3218-.7538-2.5356-2.0756-2.7111-1.3217-.1755-2.5355,.7537-2.711,2.0755-.1756,1.3218,.7537,2.5356,2.0754,2.7111Z" style="stroke: rgb(0, 0, 0); stroke-miterlimit: 10; transform-origin: 83.3552px 463.609px;" id="eltdienui49li" class="animable"></path><path d="M85.0538,485.491c1.3218,.1755,2.5356-.7537,2.7111-2.0755,.1756-1.3218-.7537-2.5356-2.0755-2.7111-1.3217-.1755-2.5356,.7537-2.7111,2.0755s.7538,2.5356,2.0755,2.7111Z" style="fill: none; stroke: rgb(0, 0, 0); stroke-linecap: round; stroke-linejoin: round; transform-origin: 85.3716px 483.098px;" id="elx8zuiftt72p" class="animable"></path><path d="M67.1649,481.4254c1.322,.1755,2.5358-.7537,2.7113-2.0755s-.7537-2.5356-2.0755-2.7111-2.5356,.7537-2.7111,2.0755,.7537,2.5356,2.0753,2.7111Z" style="fill: none; stroke: rgb(0, 0, 0); stroke-linecap: round; stroke-linejoin: round; transform-origin: 67.4829px 479.032px;" id="elsqc94263e4" class="animable"></path><path d="M112.3823,469.1824c1.3218,.1756,2.5356-.7537,2.7111-2.0754,.1755-1.3218-.7537-2.5356-2.0755-2.7112-1.3218-.1755-2.5356,.7538-2.7111,2.0756-.1755,1.3217,.7537,2.5355,2.0755,2.711Z" style="fill: none; stroke: rgb(0, 0, 0); stroke-linecap: round; stroke-linejoin: round; transform-origin: 112.7px 466.789px;" id="eldjybwm0ve5l" class="animable"></path><path d="M94.4566,475.0468c1.9226,.2553,3.6881-1.0963,3.9433-3.0189,.2554-1.9226-1.0961-3.6881-3.0187-3.9434s-3.6883,1.0963-3.9435,3.0189c-.2553,1.9226,1.0964,3.6881,3.0189,3.9434Z" style="fill: none; stroke: rgb(0, 0, 0); stroke-linecap: round; stroke-linejoin: round; transform-origin: 94.9188px 471.566px;" id="elj2ultlxg75b" class="animable"></path><path d="M112.6103,454.1818c1.9226,.2553,3.6882-1.0963,3.9435-3.0189s-1.0963-3.6881-3.0189-3.9434-3.6881,1.0963-3.9434,3.0189,1.0963,3.6881,3.0188,3.9434Z" style="fill: none; stroke: rgb(0, 0, 0); stroke-linecap: round; stroke-linejoin: round; transform-origin: 113.073px 450.701px;" id="elhneuir5l816" class="animable"></path><path d="M144.7298,487.1633c1.9225,.2553,3.6881-1.0963,3.9434-3.0189s-1.0963-3.6881-3.0189-3.9434-3.6881,1.0963-3.9434,3.0189,1.0963,3.6881,3.0189,3.9434Z" style="stroke: rgb(0, 0, 0); stroke-miterlimit: 10; transform-origin: 145.192px 483.682px;" id="elpbopwdlddf" class="animable"></path><path d="M137.5338,473.9197c1.9226,.2553,3.6881-1.0963,3.9435-3.0189,.2553-1.9226-1.0964-3.6881-3.019-3.9434s-3.688,1.0963-3.9434,3.0189c-.2552,1.9226,1.0963,3.6881,3.0189,3.9434Z" style="fill: none; stroke: rgb(0, 0, 0); stroke-linecap: round; stroke-linejoin: round; transform-origin: 137.996px 470.439px;" id="eln0gya5zs13g" class="animable"></path><path d="M105.2375,485.7657c1.9226,.2553,3.6881-1.0963,3.9434-3.0189s-1.0963-3.6881-3.019-3.9434c-1.9225-.2553-3.688,1.0963-3.9433,3.0189s1.0963,3.6881,3.0189,3.9434Z" style="fill: rgb(163, 163, 163); stroke: rgb(0, 0, 0); stroke-linecap: round; stroke-linejoin: round; transform-origin: 105.7px 482.285px;" id="elxir4c9sw9g" class="animable"></path><path d="M95.1077,461.6789c3.004,.3989,5.7626-1.7129,6.1616-4.7169,.3989-3.0041-1.713-5.7627-4.7171-6.1616-3.004-.3989-5.7627,1.713-6.1616,4.717s1.713,5.7626,4.7171,6.1615Z" style="fill: none; stroke: rgb(0, 0, 0); stroke-linecap: round; stroke-linejoin: round; transform-origin: 95.8299px 456.24px;" id="elvsw69ebu2zf" class="animable"></path><path d="M121.9623,479.8452c3.004,.3989,5.7626-1.7129,6.1615-4.717,.399-3.004-1.7129-5.7627-4.717-6.1616-3.004-.3989-5.7627,1.713-6.1616,4.7171-.3989,3.004,1.713,5.7626,4.7171,6.1615Z" style="fill: rgb(163, 163, 163); stroke: rgb(0, 0, 0); stroke-linecap: round; stroke-linejoin: round; transform-origin: 122.685px 474.406px;" id="els8184axwx0d" class="animable"></path><path d="M111.5323,443.0379c3.725,.4946,7.1456-2.124,7.6403-5.849,.4947-3.7251-2.1241-7.1458-5.8491-7.6404s-7.1457,2.124-7.6404,5.8491c-.4946,3.725,2.1242,7.1457,5.8492,7.6403Z" style="stroke: rgb(0, 0, 0); stroke-miterlimit: 10; transform-origin: 112.428px 436.293px;" id="eloc71grpxb4" class="animable"></path><path d="M59.5089,441.9505c3.725,.4947,7.1457-2.124,7.6403-5.849,.4947-3.7251-2.1241-7.1458-5.8491-7.6404s-7.1457,2.124-7.6403,5.8491c-.4947,3.725,2.1241,7.1457,5.8491,7.6403Z" style="fill: none; stroke: rgb(0, 0, 0); stroke-linecap: round; stroke-linejoin: round; transform-origin: 60.4045px 435.206px;" id="elxrend6wesmq" class="animable"></path><path d="M166.6841,457.0777c3.725,.4946,7.1458-2.124,7.6404-5.849,.4946-3.7251-2.1241-7.1458-5.8491-7.6404-3.725-.4947-7.1457,2.124-7.6405,5.8491-.4945,3.725,2.1242,7.1457,5.8492,7.6403Z" style="fill: none; stroke: rgb(0, 0, 0); stroke-linecap: round; stroke-linejoin: round; transform-origin: 167.58px 450.333px;" id="elxygnfy84zk" class="animable"></path><path d="M69.7136,460.7208c2.4032,.3191,4.6101-1.3704,4.9292-3.7736s-1.3704-4.6101-3.7736-4.9293c-2.4033-.3191-4.6101,1.3704-4.9293,3.7737-.3191,2.4032,1.3704,4.6101,3.7737,4.9292Z" style="fill: rgb(163, 163, 163); stroke: rgb(0, 0, 0); stroke-linecap: round; stroke-linejoin: round; transform-origin: 70.2914px 456.369px;" id="elmx6mitgy84e" class="animable"></path><path d="M87.4685,441.3868c2.4032,.3191,4.6101-1.3704,4.9292-3.7736s-1.3704-4.6101-3.7736-4.9292c-2.4032-.3192-4.6102,1.3703-4.9293,3.7736-.3191,2.4032,1.3704,4.6101,3.7737,4.9292Z" style="fill: none; stroke: rgb(0, 0, 0); stroke-linecap: round; stroke-linejoin: round; transform-origin: 88.0462px 437.035px;" id="elgwwmhmoskp9" class="animable"></path><path d="M180.4568,442.9625c2.4031,.3192,4.6101-1.3704,4.9291-3.7735,.3192-2.4033-1.3703-4.6102-3.7735-4.9293-2.4032-.3192-4.6101,1.3703-4.9293,3.7736-.3192,2.4032,1.3704,4.6101,3.7737,4.9292Z" style="fill: rgb(163, 163, 163); stroke: rgb(0, 0, 0); stroke-linecap: round; stroke-linejoin: round; transform-origin: 181.034px 438.611px;" id="el5zppawhhybd" class="animable"></path><circle cx="200.92349" cy="465.8626" r="3.5117" style="stroke: rgb(0, 0, 0); stroke-miterlimit: 10; transform-origin: 200.923px 465.863px;" id="el2f73b7j11l" class="animable"></circle><path d="M234.45979,492.5976c0,.8485,.6879,1.5364,1.5364,1.5364s1.5363-.6879,1.5363-1.5364-.6878-1.5364-1.5363-1.5364-1.5364,.6879-1.5364,1.5364Z" style="fill: none; stroke: rgb(0, 0, 0); stroke-linecap: round; stroke-linejoin: round; transform-origin: 235.996px 492.598px;" id="elc7lhnna5bh5" class="animable"></path><circle cx="242.35979" cy="481.7299" r="5.0481" style="fill: none; stroke: rgb(0, 0, 0); stroke-linecap: round; stroke-linejoin: round; transform-origin: 242.36px 481.73px;" id="elq2a8wzkj9sj" class="animable"></circle><path d="M212.16519,473.8924c0,2.4243,1.9654,4.3896,4.3897,4.3896s4.3896-1.9653,4.3896-4.3896-1.9653-4.3896-4.3896-4.3896-4.3897,1.9653-4.3897,4.3896Z" style="fill: none; stroke: rgb(0, 0, 0); stroke-linecap: round; stroke-linejoin: round; transform-origin: 216.555px 473.892px;" id="elumcgkmlxmbc" class="animable"></path><path d="M233.71789,428.2602c0,2.4244,1.9653,4.3897,4.3897,4.3897s4.3896-1.9653,4.3896-4.3897c0-2.4242-1.9653-4.3896-4.3896-4.3896s-4.3897,1.9654-4.3897,4.3896Z" style="fill: none; stroke: rgb(0, 0, 0); stroke-linecap: round; stroke-linejoin: round; transform-origin: 238.108px 428.26px;" id="elua8bd56nprm" class="animable"></path><circle cx="357.17639" cy="471.9371" r="6.8039" style="fill: rgb(212, 212, 212); stroke: rgb(0, 0, 0); stroke-linecap: round; stroke-linejoin: round; transform-origin: 357.176px 471.937px;" id="eloxtdpo84bq" class="animable"></circle><path d="M395.14669,484.667c0-1.3334,1.081-2.4142,2.41431-2.4142,1.33339,0,2.41429,1.0808,2.41429,2.4142s-1.0809,2.4143-2.41429,2.4143c-1.33331,0-2.41431-1.0809-2.41431-2.4143Z" style="fill: rgb(163, 163, 163); stroke: rgb(0, 0, 0); stroke-linecap: round; stroke-linejoin: round; transform-origin: 397.561px 484.667px;" id="ela0f5gojafel" class="animable"></path><circle cx="428.48519" cy="483.0977" r="2.4143" style="fill: none; stroke: rgb(0, 0, 0); stroke-linecap: round; stroke-linejoin: round; transform-origin: 428.485px 483.098px;" id="elfupoj74hobw" class="animable"></circle><path d="M387.68429,472.1566c0-1.9395,1.5723-3.5117,3.51171-3.5117s3.51179,1.5722,3.51179,3.5117c0,1.9394-1.5723,3.5117-3.51179,3.5117s-3.51171-1.5723-3.51171-3.5117Z" style="stroke: rgb(0, 0, 0); stroke-miterlimit: 10; transform-origin: 391.196px 472.157px;" id="elvvtacw8okxr" class="animable"></path><path d="M346.91379,461.0236c0-1.3333,1.081-2.4142,2.4143-2.4142,1.3334,0,2.4143,1.0809,2.4143,2.4142,0,1.3334-1.0809,2.4143-2.4143,2.4143-1.3333,0-2.4143-1.0809-2.4143-2.4143Z" style="fill: none; stroke: rgb(0, 0, 0); stroke-linecap: round; stroke-linejoin: round; transform-origin: 349.328px 461.024px;" id="elxh7xege7n" class="animable"></path><circle cx="424.44469" cy="453.8001" r="2.4143" style="fill: none; stroke: rgb(0, 0, 0); stroke-linecap: round; stroke-linejoin: round; transform-origin: 424.445px 453.8px;" id="elgs1mg2ynbx" class="animable"></circle><circle cx="434.99019" cy="438.3758" r="2.4143" style="fill: none; stroke: rgb(0, 0, 0); stroke-linecap: round; stroke-linejoin: round; transform-origin: 434.99px 438.376px;" id="elhqucsnpbvc4" class="animable"></circle><path d="M339.45139,448.5132c0-1.9395,1.5723-3.5117,3.5117-3.5117,1.9395,0,3.5118,1.5722,3.5118,3.5117s-1.5723,3.5117-3.5118,3.5117c-1.9394,0-3.5117-1.5722-3.5117-3.5117Z" style="fill: none; stroke: rgb(0, 0, 0); stroke-linecap: round; stroke-linejoin: round; transform-origin: 342.963px 448.513px;" id="el1wqrvzkba9vj" class="animable"></path><circle cx="404.05449" cy="424.3778" r="3.5117" style="fill: none; stroke: rgb(0, 0, 0); stroke-linecap: round; stroke-linejoin: round; transform-origin: 404.054px 424.378px;" id="elf1wjja96s4c" class="animable"></circle><path d="M373.22829,468.7886c0-1.3334,1.081-2.4143,2.4143-2.4143,1.33341,0,2.41441,1.0809,2.41441,2.4143,0,1.3333-1.081,2.4143-2.41441,2.4143-1.3333,0-2.4143-1.081-2.4143-2.4143Z" style="fill: none; stroke: rgb(0, 0, 0); stroke-linecap: round; stroke-linejoin: round; transform-origin: 375.643px 468.789px;" id="elk1c4dov5ft" class="animable"></path><path d="M469.16659,431.0577c0-1.3334,1.0809-2.4143,2.4142-2.4143,1.3334,0,2.4144,1.0809,2.4144,2.4143s-1.081,2.4143-2.4144,2.4143c-1.3333,0-2.4142-1.0809-2.4142-2.4143Z" style="fill: rgb(163, 163, 163); stroke: rgb(0, 0, 0); stroke-linecap: round; stroke-linejoin: round; transform-origin: 471.581px 431.058px;" id="elngtgcideb6" class="animable"></path><path d="M365.766,456.2782c0-1.9395,1.57219-3.5118,3.51169-3.5118,1.9394,0,3.5117,1.5723,3.5117,3.5118,0,1.9394-1.5723,3.5116-3.5117,3.5116-1.9395,0-3.51169-1.5722-3.51169-3.5116Z" style="fill: rgb(212, 212, 212); stroke: rgb(0, 0, 0); stroke-linecap: round; stroke-linejoin: round; transform-origin: 369.278px 456.278px;" id="elvfycswdgzib" class="animable"></path><path d="M353.00629,447.3552c0-3.0304,2.4566-5.4871,5.487-5.4871s5.487,2.4567,5.487,5.4871-2.4566,5.487-5.487,5.487-5.487-2.4566-5.487-5.487Z" style="stroke: rgb(0, 0, 0); stroke-miterlimit: 10; transform-origin: 358.493px 447.355px;" id="elmf96d7u151" class="animable"></path><circle cx="366.61409" cy="426.0654" r="2.1948" style="fill: none; stroke: rgb(0, 0, 0); stroke-linecap: round; stroke-linejoin: round; transform-origin: 366.614px 426.065px;" id="elm0jeg5o9sx" class="animable"></circle><path d="M323.86169,435.1233c0-1.2121,.9827-2.1948,2.1949-2.1948,1.2121,0,2.1948,.9827,2.1948,2.1948,0,1.2122-.9827,2.1948-2.1948,2.1948-1.2122,0-2.1949-.9826-2.1949-2.1948Z" style="fill: none; stroke: rgb(0, 0, 0); stroke-linecap: round; stroke-linejoin: round; transform-origin: 326.057px 435.123px;" id="elmkvtqrf7df" class="animable"></path><circle cx="375.64369" cy="441.6332" r="2.1948" style="fill: none; stroke: rgb(0, 0, 0); stroke-linecap: round; stroke-linejoin: round; transform-origin: 375.644px 441.633px;" id="elqvi74rv5f4d" class="animable"></circle><path d="M422.24979,428.3738c0-1.2122,.9827-2.1948,2.1949-2.1948s2.1948,.9826,2.1948,2.1948c0,1.2121-.9826,2.1948-2.1948,2.1948s-2.1949-.9827-2.1949-2.1948Z" style="fill: rgb(163, 163, 163); stroke: rgb(0, 0, 0); stroke-miterlimit: 10; transform-origin: 424.445px 428.374px;" id="elybo0e61rlr" class="animable"></path><path d="M405.68179,463.1578c0-.8485,.6879-1.5363,1.5364-1.5363s1.5364,.6878,1.5364,1.5363-.6879,1.5364-1.5364,1.5364-1.5364-.6879-1.5364-1.5364Z" style="stroke: rgb(0, 0, 0); stroke-miterlimit: 10; transform-origin: 407.218px 463.158px;" id="elf8m25j2kh7f" class="animable"></path><path d="M431.76279,470.9008c0-.8484,.6878-1.5363,1.5364-1.5363,.8485,0,1.5363,.6879,1.5363,1.5363,0,.8486-.6878,1.5364-1.5363,1.5364-.8486,0-1.5364-.6878-1.5364-1.5364Z" style="fill: none; stroke: rgb(0, 0, 0); stroke-linecap: round; stroke-linejoin: round; transform-origin: 433.299px 470.901px;" id="el56pxa4tnvb3" class="animable"></path><path d="M408.53379,474.0256c0-2.788,2.2601-5.0481,5.048-5.0481s5.0481,2.2601,5.0481,5.0481-2.2601,5.048-5.0481,5.048-5.048-2.26-5.048-5.048Z" style="fill: none; stroke: rgb(0, 0, 0); stroke-linecap: round; stroke-linejoin: round; transform-origin: 413.582px 474.026px;" id="elnxckmvuwsi" class="animable"></path><circle cx="381.09989" cy="482.6917" r="4.3896" style="fill: none; stroke: rgb(0, 0, 0); stroke-linecap: round; stroke-linejoin: round; transform-origin: 381.1px 482.692px;" id="el0ubt1fv5688k" class="animable"></circle><circle cx="406.18979" cy="441.4898" r="3.5117" style="fill: none; stroke: rgb(0, 0, 0); stroke-linecap: round; stroke-linejoin: round; transform-origin: 406.19px 441.49px;" id="el6u3inhlfyed" class="animable"></circle><path d="M388.22209,438.1218c0-1.3334,1.08091-2.4143,2.4142-2.4143,1.3335,0,2.4144,1.0809,2.4144,2.4143s-1.0809,2.4143-2.4144,2.4143c-1.33329,0-2.4142-1.0809-2.4142-2.4143Z" style="fill: none; stroke: rgb(0, 0, 0); stroke-linecap: round; stroke-linejoin: round; transform-origin: 390.636px 438.122px;" id="elttrgq4qlqzb" class="animable"></path><circle cx="384.27139" cy="425.6113" r="3.5117" style="fill: rgb(212, 212, 212); stroke: rgb(0, 0, 0); stroke-linecap: round; stroke-linejoin: round; transform-origin: 384.271px 425.611px;" id="eljeopkqmgwio" class="animable"></circle><path d="M391.704,452.0249c0-2.4243,1.96529-4.3896,4.38959-4.3896s4.3897,1.9653,4.3897,4.3896-1.96529,4.3896-4.3897,4.3896-4.38959-1.9653-4.38959-4.3896Z" style="fill: rgb(163, 163, 163); stroke: rgb(0, 0, 0); stroke-linecap: round; stroke-linejoin: round; transform-origin: 396.094px 452.025px;" id="elew6ddzydf4" class="animable"></path><circle cx="346.42839" cy="430.9092" r="5.0481" style="fill: none; stroke: rgb(0, 0, 0); stroke-linecap: round; stroke-linejoin: round; transform-origin: 346.428px 430.909px;" id="elhrco2y9kdyf" class="animable"></circle><path d="M447.50109,435.223c0-2.7879,2.2602-5.048,5.0482-5.048s5.048,2.2601,5.048,5.048-2.2601,5.0481-5.048,5.0481-5.0482-2.2601-5.0482-5.0481Z" style="fill: none; stroke: rgb(0, 0, 0); stroke-linecap: round; stroke-linejoin: round; transform-origin: 452.549px 435.223px;" id="elxacz2ncum9" class="animable"></path><path d="M337.78649,484.3788c0-2.4243,1.9653-4.3896,4.3896-4.3896s4.3897,1.9653,4.3897,4.3896-1.9653,4.3896-4.3897,4.3896-4.3896-1.9652-4.3896-4.3896Z" style="stroke: rgb(0, 0, 0); stroke-miterlimit: 10; transform-origin: 342.176px 484.379px;" id="elrfa3st68xdo" class="animable"></path></g></g></g></g><g id="freepik--Flashes--inject-78" class="animable" style="transform-origin: 246.848px 398.76px;"><g id="elpy0p01g00cg" class="animable" style="transform-origin: 246.848px 398.76px;"><path d="M66.2947,363.1684c-14.4571-.7605-15.0736-1.3769-15.834-15.8342-.7604,14.4573-1.3769,15.0737-15.8342,15.8342,14.4573,.7604,15.0738,1.3769,15.8342,15.8341,.7604-14.4572,1.3769-15.0737,15.834-15.8341Z" style="fill: rgb(255, 255, 255); stroke: rgb(130, 130, 130); stroke-linecap: round; stroke-linejoin: round; transform-origin: 50.4606px 363.168px;" id="eljfozr1wvlus" class="animable"></path><path d="M141.184,334.3614c-14.4573-.7604-15.0738-1.3768-15.8342-15.8341-.7604,14.4573-1.3769,15.0737-15.8341,15.8341,14.4572,.7605,15.0737,1.3769,15.8341,15.8342,.7604-14.4573,1.3769-15.0737,15.8342-15.8342Z" style="fill: rgb(255, 255, 255); stroke: rgb(130, 130, 130); stroke-linecap: round; stroke-linejoin: round; transform-origin: 125.35px 334.361px;" id="ellnj3e911ifl" class="animable"></path><path d="M451.76879,350.6186c-14.4573-.7604-15.0737-1.3769-15.8342-15.8341-.7604,14.4572-1.3769,15.0737-15.8341,15.8341,14.4572,.7604,15.0737,1.3769,15.8341,15.8341,.7605-14.4572,1.3769-15.0737,15.8342-15.8341Z" style="fill: rgb(255, 255, 255); stroke: rgb(130, 130, 130); stroke-linecap: round; stroke-linejoin: round; transform-origin: 435.935px 350.619px;" id="elt0jsmd88ne" class="animable"></path><path d="M381.02819,357.4643c-11.1218-.585-11.596-1.0592-12.181-12.181-.585,11.1218-1.05919,11.596-12.181,12.181,11.12181,.585,11.596,1.0592,12.181,12.1809,.585-11.1217,1.0592-11.5959,12.181-12.1809Z" style="fill: rgb(255, 255, 255); stroke: rgb(130, 130, 130); stroke-linecap: round; stroke-linejoin: round; transform-origin: 368.847px 357.464px;" id="elw0nom2xxd1n" class="animable"></path><path d="M258.63209,359.1051c-6.4985-.3419-6.7756-.6189-7.1174-7.1174-.3418,6.4985-.6189,6.7755-7.1173,7.1174,6.4984,.3418,6.7755,.6188,7.1173,7.1173,.3418-6.4985,.6189-6.7755,7.1174-7.1173Z" style="fill: rgb(255, 255, 255); stroke: rgb(130, 130, 130); stroke-linecap: round; stroke-linejoin: round; transform-origin: 251.515px 359.105px;" id="eldrtn0nvwif" class="animable"></path><path d="M404.71629,435.9176c-6.4985-.3418-6.7756-.6189-7.1174-7.1173-.3418,6.4984-.61889,6.7755-7.1173,7.1173,6.49841,.3418,6.7755,.6189,7.1173,7.1174,.3418-6.4985,.6189-6.7756,7.1174-7.1174Z" style="fill: rgb(255, 255, 255); stroke: rgb(130, 130, 130); stroke-linecap: round; stroke-linejoin: round; transform-origin: 397.599px 435.918px;" id="eljgavnon4dfe" class="animable"></path><path d="M146.6349,435.5047c-6.4984-.3418-6.7755-.6189-7.1173-7.1173-.3418,6.4984-.6189,6.7755-7.1173,7.1173,6.4984,.3418,6.7755,.6189,7.1173,7.1174,.3418-6.4985,.6189-6.7756,7.1173-7.1174Z" style="fill: rgb(255, 255, 255); stroke: rgb(130, 130, 130); stroke-linecap: round; stroke-linejoin: round; transform-origin: 139.518px 435.505px;" id="elesq0ebetn" class="animable"></path><path d="M261.00109,466.8115c-11.1217-.585-11.5959-1.0592-12.1809-12.181-.585,11.1218-1.05919,11.596-12.181,12.181,11.12181,.585,11.596,1.0592,12.181,12.1809,.585-11.1217,1.0592-11.5959,12.1809-12.1809Z" style="fill: rgb(255, 255, 255); stroke: rgb(130, 130, 130); stroke-linecap: round; stroke-linejoin: round; transform-origin: 248.82px 466.811px;" id="elgm5bg26zanw" class="animable"></path><path d="M457.47149,460.6504c-11.1217-.585-11.5959-1.0592-12.1809-12.181-.585,11.1218-1.0592,11.596-12.181,12.181,11.1218,.585,11.596,1.0592,12.181,12.1809,.585-11.1217,1.0592-11.5959,12.1809-12.1809Z" style="fill: rgb(255, 255, 255); stroke: rgb(130, 130, 130); stroke-linecap: round; stroke-linejoin: round; transform-origin: 445.291px 460.65px;" id="ellxahu0ie1nj" class="animable"></path><path d="M73.8917,460.8722c-11.1217-.585-11.596-1.0592-12.1809-12.181-.585,11.1218-1.0593,11.596-12.181,12.181,11.1217,.585,11.596,1.0592,12.181,12.1809,.5849-11.1217,1.0592-11.5959,12.1809-12.1809Z" style="fill: rgb(255, 255, 255); stroke: rgb(130, 130, 130); stroke-linecap: round; stroke-linejoin: round; transform-origin: 61.7108px 460.872px;" id="elbw9uyqiqc5a" class="animable"></path><path d="M459.06869,373.8938c-11.1218-.585-11.596-1.0592-12.181-12.181-.585,11.1218-1.0592,11.596-12.181,12.181,11.1218,.585,11.596,1.0592,12.181,12.181,.585-11.1218,1.0592-11.596,12.181-12.181Z" style="fill: rgb(255, 255, 255); stroke: rgb(130, 130, 130); stroke-linecap: round; stroke-linejoin: round; transform-origin: 446.888px 373.894px;" id="elwnm323j57r" class="animable"></path></g></g><g id="freepik--Hand_2--inject-78" class="animable" style="transform-origin: 299.775px 344.159px;"><g id="el8uwfujvlbee" class="animable" style="transform-origin: 299.775px 344.159px;"><path d="M340.64029,500c-1.5177-7.6879-21.7551-110.7264-21.1488-135.5785,.6298-25.8196,6.5578-45.2007,6.5578-45.2007,0,0,3.4958-6.7871,9.4273-16.7729,5.93141-9.9859,14.1488-12.4641,13.9425-16.9793-.2063-4.5153,1.04791-19.5839,2.0442-23.409,.9963-3.8249-.5408-9.5037-1.2204-13.8909-.6795-4.3871-.4323-10.041-.8361-12.4712-.4039-2.4302-3.9922-3.4905-6.8369,.073-2.8448,3.5634-3.64889,8.0982-3.9798,12.505-.3309,4.4067-1.37709,11.8004-2.6295,14.679-1.2525,2.8785-2.4409,5.9936-2.4409,5.9936,0,0-4.9636-1.4499-9.1675-6.6608s-5.0614-6.5025-6.2783-10.9982c-1.2168-4.4957-3.7964-27.1609-3.574-31.0304,.2223-3.8695,3.7417-20.0941,.2868-23.4761s-5.2838-2.6331-6.901-.1637c-1.6171,2.4693-2.633,5.2838-2.9444,10.7011-.3114,5.4172-1.5428,16.9594-1.5286,20.7648,.0142,3.8053,.29,5.7623-.09969,7.1376-.38951,1.3752-1.78971,2.77-3.52961,1.9712-1.7399-.7989-1.8128-7.6358-1.9107-12.6883-.0978-5.0526-1.3942-19.1313-.5456-24.44s-.861-10.6868-3.3748-11.5301c-2.5139-.8433-6.1716,.6547-6.5915,6.6092s-4.1706,17.3361-3.7526,23.5717c.4181,6.2357,2.3981,16.3656,2.32881,18.9239-.06941,2.5584-2.97291,3.0903-4.71281,2.2915-1.7399-.7989-5.1695-24.178-6.1693-29.7482-.9998-5.5703-.9642-12.9445-1.7327-15.7839-.7686-2.8393-6.6288-7.6019-8.5964-1.7364-1.9677,5.8656-.411,12.5549-.3523,15.5864,.0586,3.0316,.5812,17.5474,1.9013,24.3007,1.32,6.7533,2.92121,12.6687,2.76821,13.9799-.153,1.3111-3.01741,3.8641-4.77681,2.0548-1.7595-1.8093-6.4831-17.9113-7.1876-20.5141-.7045-2.6027-.9643-12.9444-2.8714-16.2375-1.90719-3.293-5.2393-3.4069-5.5898-.0107-.3505,3.3963-1.6635,15.4334-.12639,21.1121,1.53709,5.6788,4.777,21.9284,5.95469,24.4031,1.1778,2.4747,2.8802,22.8378,5.9544,34.1954,3.0742,11.3575,12.9551,27.2215,13.6596,29.8243s1.827,11.4411,1.2684,22.5122c-.5587,11.0711-6.9972,50.1446-7.5772,72.3954-.57189,21.9367-1.9884,61.8017,.198,83.735" style="fill: rgb(222, 222, 222); stroke: rgb(38, 50, 56); stroke-miterlimit: 10; transform-origin: 299.775px 344.159px;" id="eldtr8ixp7i6g" class="animable"></path><path d="M294.02369,326.2747c3.911-.5729,7.31431-2.6507,7.31431-2.6507,0,0,4.81059,2.7611,11.39139,1.7417,6.5807-1.0194,10.653-5.6769,12.5709-7.9737" style="fill: none; stroke: rgb(38, 50, 56); stroke-miterlimit: 10; transform-origin: 309.662px 321.833px;" id="elqmk9j9k5lrc" class="animable"></path><path d="M284.396,323.8926s1.82359,2.0459,6.76759,2.4853" style="fill: none; stroke: rgb(38, 50, 56); stroke-miterlimit: 10; transform-origin: 287.78px 325.135px;" id="el4mamvmorknk" class="animable"></path><path d="M272.52809,245.3327s12.8911-6.7906,22.9322-7.2229" style="fill: none; stroke: rgb(38, 50, 56); stroke-miterlimit: 10; transform-origin: 283.994px 241.721px;" id="elnjxswhpsrws" class="animable"></path><path d="M299.21929,287.1852c-.7034,6.0593-.6227,8.4844-.6227,8.4844" style="fill: none; stroke: rgb(38, 50, 56); stroke-miterlimit: 10; transform-origin: 298.907px 291.427px;" id="elek29t9qa6rk" class="animable"></path><path d="M314.208,260.462s-12.27021,8.1463-14.012,19.5376" style="fill: none; stroke: rgb(38, 50, 56); stroke-miterlimit: 10; transform-origin: 307.202px 270.231px;" id="elsgw048cjk2" class="animable"></path><path d="M308.62049,211.5854s.675,.675,4.0501,0" style="fill: none; stroke: rgb(38, 50, 56); stroke-miterlimit: 10; transform-origin: 310.646px 211.735px;" id="elb66rnzxmbc" class="animable"></path><path d="M306.25789,223.3983s3.37511,1.6876,7.0878-.3375" style="fill: none; stroke: rgb(38, 50, 56); stroke-miterlimit: 10; transform-origin: 309.802px 223.559px;" id="el70gdrfll4ml" class="animable"></path><path d="M288.03219,203.1476s4.3877,3.0376,8.1003,1.0125" style="fill: none; stroke: rgb(38, 50, 56); stroke-miterlimit: 10; transform-origin: 292.082px 204.002px;" id="elx7lvd8v8sls" class="animable"></path><path d="M283.60819,218.7161s7.1241,3.6697,12.18681-.718" style="fill: none; stroke: rgb(38, 50, 56); stroke-miterlimit: 10; transform-origin: 289.702px 219.076px;" id="elk9tvo9kunip" class="animable"></path><path d="M305.58289,236.5613s2.3626,2.7001,6.7502,.675" style="fill: none; stroke: rgb(38, 50, 56); stroke-miterlimit: 10; transform-origin: 308.958px 237.275px;" id="el57672bclsbd" class="animable"></path><path d="M266.43139,208.2103s3.7127,2.0251,6.7503-1.6876" style="fill: none; stroke: rgb(38, 50, 56); stroke-miterlimit: 10; transform-origin: 269.807px 207.642px;" id="el498wc7cy0ti" class="animable"></path><path d="M266.09389,226.7735s6.0753,1.6875,9.7879-2.0251" style="fill: none; stroke: rgb(38, 50, 56); stroke-miterlimit: 10; transform-origin: 270.988px 225.952px;" id="elzcoh9i1gngc" class="animable"></path><path d="M257.07859,228.0707s-3.8101,2.4154-6.8477,2.0779" style="fill: none; stroke: rgb(38, 50, 56); stroke-miterlimit: 10; transform-origin: 253.655px 229.126px;" id="elgeodawmlzg9" class="animable"></path><path d="M260.01869,243.9866s-2.0251,2.3626-5.06269,2.7001" style="fill: none; stroke: rgb(38, 50, 56); stroke-miterlimit: 10; transform-origin: 257.487px 245.337px;" id="elnokb9yuuiy" class="animable"></path><path d="M333.51969,268.9481s-5.661,1.702-7.6861,1.3645c-2.0251-.3376-7.4252-1.6876-9.1128-1.0126" style="fill: none; stroke: rgb(38, 50, 56); stroke-miterlimit: 10; transform-origin: 325.12px 269.652px;" id="el9mfeaw0mii9" class="animable"></path></g></g><g id="freepik--Hand_1--inject-78" class="animable" style="transform-origin: 204.39px 360.509px;"><g id="elzgr6hca7fhh" class="animable" style="transform-origin: 204.39px 360.509px;"><path d="M217.04379,500l-1.3503-31.5359,6.3222-105.2649s8.535-8.5349,12.6444-17.0699c4.1094-8.5351,12.0122-33.1917,12.6445-35.4044,.6322-2.2128,7.5866-18.9667,12.64441-26.8694,5.05769-7.9028,7.90269-9.7995,9.48329-16.4378,1.5805-6.6383-3.1611-6.6383-5.0578-6.0061s-8.535,7.9028-8.535,7.9028c0,0,.6322-1.5806,2.5289-5.0578s8.9598-16.0063,8.0115-20.4318c-.9483-4.4256-7.6954-5.1731-9.276-2.3281-1.5805,2.8449-5.3738,13.2766-10.1155,18.9666-4.7416,5.69-14.4081,20.6392-16.3047,20.6392s-4.87469-3.2531-2.978-8.9431c1.8967-5.69,6.3222-15.1733,7.2706-19.915,.9483-4.7416,8.2188-25.921,6.9544-28.7661-1.2645-2.8449-6.3222-3.161-8.535-1.2644s-10.4316,22.76-12.6444,26.5533-5.69,24.6566-7.2706,26.8694-3.7933,0-4.7416-2.5289c-.9484-2.5289-1.5806-16.7539,0-24.3405,1.5805-7.5866,5.0577-17.07,4.4255-22.1277-.6322-5.0578-6.9545-5.0578-9.7994-.9484-2.845,4.1094-8.2189,20.8633-8.8511,24.0244-.6323,3.1612,.9483,19.2828-1.2645,27.1855-2.2127,7.9028-11.38,21.4956-14.541,23.3922-3.1612,1.8967-6.0061,.3161-8.535-4.1094-2.5289-4.4256-3.1611-12.3283-6.9545-15.4895-3.7933-3.161-12.3283-6.0061-18.9666-5.0577-6.6383,.9483-5.0578,5.3738-5.0578,5.3738,0,0,14.5411,7.9028,15.8055,18.3345,1.2645,10.4317,1.8967,24.3405,6.0061,32.2432,4.1095,7.9028,14.8572,21.4956,15.1734,24.3406,.3161,2.845-2.845,41.4105-7.9028,64.8026-4.6745,21.6198-20.3196,71.7895-22.6637,79.2687" style="fill: rgb(186, 186, 186); stroke: rgb(38, 50, 56); stroke-miterlimit: 10; transform-origin: 204.39px 360.509px;" id="eldfw1aohq33c" class="animable"></path><path d="M255.83949,269.3144s-6.6383,12.3283-9.4833,17.07c-2.845,4.7416-3.7933,6.6383-3.7933,6.6383" style="fill: none; stroke: rgb(38, 50, 56); stroke-miterlimit: 10; transform-origin: 249.201px 281.169px;" id="elvfiro9ckzpn" class="animable"></path><path d="M225.71329,297.1432s-2.25929,3.6149-1.1296,6.7778" style="fill: none; stroke: rgb(38, 50, 56); stroke-miterlimit: 10; transform-origin: 224.99px 300.532px;" id="elz1udyuqqfrf" class="animable"></path><path d="M212.83549,288.3321s-1.35549,5.6482-.6778,7.9074c.6778,2.2593,1.3556,3.3889,1.3556,3.3889" style="fill: none; stroke: rgb(38, 50, 56); stroke-miterlimit: 10; transform-origin: 212.741px 293.98px;" id="ela21vapnsuko" class="animable"></path><path d="M239.04289,301.6618s-3.38889,5.4222-1.8074,8.5851" style="fill: none; stroke: rgb(38, 50, 56); stroke-miterlimit: 10; transform-origin: 237.929px 305.954px;" id="el34hmrey6k0f" class="animable"></path><path d="M178.7085,300.2932s-5.8618,3.8537-8.5729,5.8871" style="fill: none; stroke: rgb(38, 50, 56); stroke-miterlimit: 10; transform-origin: 174.422px 303.237px;" id="eluj99blk1q1" class="animable"></path><path d="M206.05779,284.4914s-2.4852,8.5852-5.1963,10.3926" style="fill: none; stroke: rgb(38, 50, 56); stroke-miterlimit: 10; transform-origin: 203.46px 289.688px;" id="eledbkik5japh" class="animable"></path></g></g><g id="freepik--Ball--inject-78" class="animable" style="transform-origin: 248.264px 105.383px;"><g id="el1y9muo63jn6" class="animable" style="transform-origin: 250.992px 105.383px;"><circle cx="250.99162" cy="105.3834" r="78.45716" style="fill: rgb(0, 255, 136); stroke: rgb(38, 50, 56); stroke-miterlimit: 10; stroke-width: 2px; transform-origin: 250.992px 105.383px;" id="elfoefsyyurhc" class="animable"></circle><path d="M250.99159,26.9262c-43.3307,0-78.4571,35.1264-78.4571,78.4572,0,2.5511,.1261,5.0725,.3641,7.5613,20.5079,8.0341,46.1266,12.8096,73.9234,12.8096,31.83619,0,60.81769-6.2623,82.53159-16.5132,.0619-1.2783,.0952-2.5641,.0952-3.8577,0-43.3308-35.1265-78.4572-78.4572-78.4572Z" style="fill: none; stroke: rgb(38, 50, 56); stroke-miterlimit: 10; transform-origin: 250.992px 76.3403px;" id="elqoox1mz9bjt" class="animable"></path><path d="M251.03609,27.0918c-28.0403,7.5265-50.7628,37.4555-54.0179,74.6698-3.1772,36.3223,13.1685,68.4092,38.487,80.5204" style="fill: none; stroke: rgb(38, 50, 56); stroke-miterlimit: 10; transform-origin: 223.83px 104.687px;" id="elzgkffiy8xeo" class="animable"></path><path d="M305.611,49.0678c-5.97451,.3123-14.31341,1.3027-24.60531,3.9193-22.0911,5.6164-35.5704,21.7167-49.7985,34.0727-14.22819,12.3561-26.9587,16.8492-40.0635,8.2374-7.9023-5.1929-9.2689-18.0081-9.1091-27.3663-6.0577,11.1299-9.5001,23.8891-9.5001,37.4525,0,15.1582,4.3032,29.3093,11.748,41.3068,2.5734-3.0701,8.4547-7.5853,16.5962-7.5853,10.4839,0,30.7029,14.9771,53.5428,24.7121,14.7297,6.2783,29.1382,8.0383,37.52051,8.4981,22.49709-13.7938,37.50679-38.6088,37.50679-66.9317,0-22.0968-9.1385-42.0564-23.83779-56.3156Z" style="fill: none; stroke: rgb(38, 50, 56); stroke-miterlimit: 10; transform-origin: 250.992px 110.691px;" id="elgy7vthrwsjt" class="animable"></path></g><g id="eljr989qo55ug" class="animable" style="transform-origin: 248.264px 88.9976px;"><path d="M346.36619,142.3946c3.4726-10.3465,5.3542-21.4232,5.3542-32.9393,0-11.0456-1.731-21.6868-4.9365-31.6673" style="fill: none; stroke: rgb(38, 50, 56); stroke-miterlimit: 10; transform-origin: 349.043px 110.091px;" id="elwz7g74gy8xk" class="animable"></path><path d="M175.8162,35.6006c-19.1368,18.7745-31.0084,44.9282-31.0084,73.8547,0,1.4231,.0287,2.8394,.0857,4.2485" style="fill: none; stroke: rgb(38, 50, 56); stroke-miterlimit: 10; transform-origin: 160.312px 74.6522px;" id="elu0sprtn8syh" class="animable"></path><path d="M339.66589,127.7713c1.1802-5.9222,1.7992-12.0468,1.7992-18.316,0-13.9844-3.0799-27.2494-8.5985-39.1538" style="fill: none; stroke: rgb(38, 50, 56); stroke-miterlimit: 10; transform-origin: 337.166px 99.0364px;" id="elvoljf2xl8i" class="animable"></path><path d="M336.05929,140.8107c.94471-2.6448,1.7732-5.3449,2.4795-8.0939" style="fill: none; stroke: rgb(38, 50, 56); stroke-miterlimit: 10; transform-origin: 337.299px 136.764px;" id="el0n02gkxqgcb" class="animable"></path><path d="M159.3917,81.2988c-2.8118,8.8835-4.3286,18.3429-4.3286,28.1565,0,5.5822,.4908,11.0498,1.4315,16.362" style="fill: none; stroke: rgb(38, 50, 56); stroke-miterlimit: 10; transform-origin: 157.227px 103.558px;" id="elxj8huyxa7g" class="animable"></path><path d="M165.3147,66.9174c-1.7357,3.3777-3.271,6.8751-4.5905,10.4767" style="fill: none; stroke: rgb(38, 50, 56); stroke-miterlimit: 10; transform-origin: 163.019px 72.1557px;" id="ellndyccdzv2i" class="animable"></path></g></g><defs>     <filter id="active" height="200%">         <feMorphology in="SourceAlpha" result="DILATED" operator="dilate" radius="2"></feMorphology>                <feFlood flood-color="#32DFEC" flood-opacity="1" result="PINK"></feFlood>        <feComposite in="PINK" in2="DILATED" operator="in" result="OUTLINE"></feComposite>        <feMerge>            <feMergeNode in="OUTLINE"></feMergeNode>            <feMergeNode in="SourceGraphic"></feMergeNode>        </feMerge>    </filter>    <filter id="hover" height="200%">        <feMorphology in="SourceAlpha" result="DILATED" operator="dilate" radius="2"></feMorphology>                <feFlood flood-color="#ff0000" flood-opacity="0.5" result="PINK"></feFlood>        <feComposite in="PINK" in2="DILATED" operator="in" result="OUTLINE"></feComposite>        <feMerge>            <feMergeNode in="OUTLINE"></feMergeNode>            <feMergeNode in="SourceGraphic"></feMergeNode>        </feMerge>            <feColorMatrix type="matrix" values="0   0   0   0   0                0   1   0   0   0                0   0   0   0   0                0   0   0   1   0 "></feColorMatrix>    </filter></defs></svg>